<mxfile host="app.diagrams.net" modified="2024-03-08T09:33:12.188Z" agent="Mozilla/5.0 (Windows NT 10.0; Win64; x64) AppleWebKit/537.36 (KHTML, like Gecko) Chrome/122.0.0.0 Safari/537.36" etag="RfpJ9d4mrm18Uw34hLrS" version="24.0.2" type="device" pages="4">
  <diagram id="RXnP922MJyov0dE7asX7" name="Cas Utilisateur">
    <mxGraphModel dx="1050" dy="534" grid="1" gridSize="10" guides="1" tooltips="1" connect="1" arrows="1" fold="1" page="1" pageScale="1" pageWidth="827" pageHeight="1169" math="0" shadow="0">
      <root>
        <mxCell id="0" />
        <mxCell id="1" parent="0" />
        <mxCell id="9bkewiAqY9aisritPCOF-1" value="Cas d&#39;Utilisation" style="swimlane;whiteSpace=wrap;html=1;sketch=1;hachureGap=4;jiggle=2;curveFitting=1;fontFamily=Architects Daughter;fontSource=https%3A%2F%2Ffonts.googleapis.com%2Fcss%3Ffamily%3DArchitects%2BDaughter;fontSize=20;" parent="1" vertex="1">
          <mxGeometry x="243" y="240" width="370" height="610" as="geometry" />
        </mxCell>
        <mxCell id="9bkewiAqY9aisritPCOF-2" value="" style="edgeStyle=orthogonalEdgeStyle;rounded=0;sketch=1;hachureGap=4;jiggle=2;curveFitting=1;orthogonalLoop=1;jettySize=auto;html=1;fontFamily=Architects Daughter;fontSource=https%3A%2F%2Ffonts.googleapis.com%2Fcss%3Ffamily%3DArchitects%2BDaughter;fontSize=16;" parent="9bkewiAqY9aisritPCOF-1" source="9bkewiAqY9aisritPCOF-3" target="9bkewiAqY9aisritPCOF-7" edge="1">
          <mxGeometry relative="1" as="geometry" />
        </mxCell>
        <mxCell id="9bkewiAqY9aisritPCOF-3" value="Connexion" style="rounded=0;whiteSpace=wrap;html=1;sketch=1;hachureGap=4;jiggle=2;curveFitting=1;fontFamily=Architects Daughter;fontSource=https%3A%2F%2Ffonts.googleapis.com%2Fcss%3Ffamily%3DArchitects%2BDaughter;fontSize=20;" parent="9bkewiAqY9aisritPCOF-1" vertex="1">
          <mxGeometry x="20" y="230" width="120" height="60" as="geometry" />
        </mxCell>
        <mxCell id="9bkewiAqY9aisritPCOF-4" style="edgeStyle=orthogonalEdgeStyle;rounded=0;sketch=1;hachureGap=4;jiggle=2;curveFitting=1;orthogonalLoop=1;jettySize=auto;html=1;fontFamily=Architects Daughter;fontSource=https%3A%2F%2Ffonts.googleapis.com%2Fcss%3Ffamily%3DArchitects%2BDaughter;fontSize=16;" parent="9bkewiAqY9aisritPCOF-1" source="9bkewiAqY9aisritPCOF-5" target="9bkewiAqY9aisritPCOF-3" edge="1">
          <mxGeometry relative="1" as="geometry" />
        </mxCell>
        <mxCell id="9bkewiAqY9aisritPCOF-5" value="Inscription" style="rounded=0;whiteSpace=wrap;html=1;sketch=1;hachureGap=4;jiggle=2;curveFitting=1;fontFamily=Architects Daughter;fontSource=https%3A%2F%2Ffonts.googleapis.com%2Fcss%3Ffamily%3DArchitects%2BDaughter;fontSize=20;fillColor=#f5f5f5;fontColor=#333333;strokeColor=#666666;" parent="9bkewiAqY9aisritPCOF-1" vertex="1">
          <mxGeometry x="20" y="120" width="120" height="60" as="geometry" />
        </mxCell>
        <mxCell id="9bkewiAqY9aisritPCOF-6" value="" style="edgeStyle=orthogonalEdgeStyle;rounded=0;sketch=1;hachureGap=4;jiggle=2;curveFitting=1;orthogonalLoop=1;jettySize=auto;html=1;fontFamily=Architects Daughter;fontSource=https%3A%2F%2Ffonts.googleapis.com%2Fcss%3Ffamily%3DArchitects%2BDaughter;fontSize=16;dashed=1;" parent="9bkewiAqY9aisritPCOF-1" source="9bkewiAqY9aisritPCOF-7" target="9bkewiAqY9aisritPCOF-8" edge="1">
          <mxGeometry relative="1" as="geometry" />
        </mxCell>
        <mxCell id="9bkewiAqY9aisritPCOF-7" value="Crée un Ticket" style="rounded=0;whiteSpace=wrap;html=1;sketch=1;hachureGap=4;jiggle=2;curveFitting=1;fontFamily=Architects Daughter;fontSource=https%3A%2F%2Ffonts.googleapis.com%2Fcss%3Ffamily%3DArchitects%2BDaughter;fontSize=20;" parent="9bkewiAqY9aisritPCOF-1" vertex="1">
          <mxGeometry x="20" y="370" width="120" height="60" as="geometry" />
        </mxCell>
        <mxCell id="9bkewiAqY9aisritPCOF-8" value="CRED" style="whiteSpace=wrap;html=1;fontSize=20;fontFamily=Architects Daughter;rounded=0;sketch=1;hachureGap=4;jiggle=2;curveFitting=1;fontSource=https%3A%2F%2Ffonts.googleapis.com%2Fcss%3Ffamily%3DArchitects%2BDaughter;" parent="9bkewiAqY9aisritPCOF-1" vertex="1">
          <mxGeometry x="20" y="490" width="120" height="60" as="geometry" />
        </mxCell>
        <mxCell id="9bkewiAqY9aisritPCOF-10" value="" style="edgeStyle=orthogonalEdgeStyle;rounded=0;sketch=1;hachureGap=4;jiggle=2;curveFitting=1;orthogonalLoop=1;jettySize=auto;html=1;fontFamily=Architects Daughter;fontSource=https%3A%2F%2Ffonts.googleapis.com%2Fcss%3Ffamily%3DArchitects%2BDaughter;fontSize=16;" parent="9bkewiAqY9aisritPCOF-1" source="9bkewiAqY9aisritPCOF-11" target="9bkewiAqY9aisritPCOF-12" edge="1">
          <mxGeometry relative="1" as="geometry" />
        </mxCell>
        <mxCell id="9bkewiAqY9aisritPCOF-11" value="Gestion Ticket" style="swimlane;whiteSpace=wrap;html=1;sketch=1;hachureGap=4;jiggle=2;curveFitting=1;fontFamily=Architects Daughter;fontSource=https%3A%2F%2Ffonts.googleapis.com%2Fcss%3Ffamily%3DArchitects%2BDaughter;fontSize=20;startSize=30;fillColor=#dae8fc;strokeColor=#6c8ebf;" parent="9bkewiAqY9aisritPCOF-1" vertex="1">
          <mxGeometry x="180.19" y="360" width="166.5" height="240" as="geometry">
            <mxRectangle x="180.19" y="360" width="130" height="40" as="alternateBounds" />
          </mxGeometry>
        </mxCell>
        <mxCell id="9bkewiAqY9aisritPCOF-20" value="" style="edgeStyle=orthogonalEdgeStyle;rounded=0;sketch=1;hachureGap=4;jiggle=2;curveFitting=1;orthogonalLoop=1;jettySize=auto;html=1;" parent="9bkewiAqY9aisritPCOF-11" source="9bkewiAqY9aisritPCOF-9" target="9bkewiAqY9aisritPCOF-19" edge="1">
          <mxGeometry relative="1" as="geometry" />
        </mxCell>
        <mxCell id="9bkewiAqY9aisritPCOF-9" value="Type de priorité" style="whiteSpace=wrap;html=1;fontSize=20;fontFamily=Architects Daughter;rounded=0;sketch=1;hachureGap=4;jiggle=2;curveFitting=1;fontSource=https%3A%2F%2Ffonts.googleapis.com%2Fcss%3Ffamily%3DArchitects%2BDaughter;" parent="9bkewiAqY9aisritPCOF-11" vertex="1">
          <mxGeometry x="23.25" y="60" width="120" height="60" as="geometry" />
        </mxCell>
        <mxCell id="9bkewiAqY9aisritPCOF-19" value="Type de demande" style="whiteSpace=wrap;html=1;fontSize=20;fontFamily=Architects Daughter;rounded=0;sketch=1;hachureGap=4;jiggle=2;curveFitting=1;fontSource=https%3A%2F%2Ffonts.googleapis.com%2Fcss%3Ffamily%3DArchitects%2BDaughter;" parent="9bkewiAqY9aisritPCOF-11" vertex="1">
          <mxGeometry x="23.25" y="160" width="120" height="60" as="geometry" />
        </mxCell>
        <mxCell id="9bkewiAqY9aisritPCOF-12" value="Messagerie" style="ellipse;whiteSpace=wrap;html=1;fontSize=20;fontFamily=Architects Daughter;fillColor=#f8cecc;strokeColor=#b85450;fontStyle=1;startSize=30;sketch=1;hachureGap=4;jiggle=2;curveFitting=1;fontSource=https%3A%2F%2Ffonts.googleapis.com%2Fcss%3Ffamily%3DArchitects%2BDaughter;" parent="9bkewiAqY9aisritPCOF-1" vertex="1">
          <mxGeometry x="173.5" y="90" width="179.88" height="170" as="geometry" />
        </mxCell>
        <mxCell id="9bkewiAqY9aisritPCOF-13" value="Création Ticket" style="swimlane;whiteSpace=wrap;html=1;sketch=1;hachureGap=4;jiggle=2;curveFitting=1;fontFamily=Architects Daughter;fontSource=https%3A%2F%2Ffonts.googleapis.com%2Fcss%3Ffamily%3DArchitects%2BDaughter;fontSize=20;fillColor=#d5e8d4;strokeColor=#82b366;" parent="9bkewiAqY9aisritPCOF-1" vertex="1">
          <mxGeometry x="10" y="50" width="150" height="520" as="geometry">
            <mxRectangle x="10" y="50" width="90" height="40" as="alternateBounds" />
          </mxGeometry>
        </mxCell>
        <mxCell id="9bkewiAqY9aisritPCOF-14" value="" style="edgeStyle=orthogonalEdgeStyle;rounded=0;sketch=1;hachureGap=4;jiggle=2;curveFitting=1;orthogonalLoop=1;jettySize=auto;html=1;fontFamily=Architects Daughter;fontSource=https%3A%2F%2Ffonts.googleapis.com%2Fcss%3Ffamily%3DArchitects%2BDaughter;fontSize=16;exitX=1;exitY=0.5;exitDx=0;exitDy=0;" parent="9bkewiAqY9aisritPCOF-1" source="9bkewiAqY9aisritPCOF-7" target="9bkewiAqY9aisritPCOF-9" edge="1">
          <mxGeometry relative="1" as="geometry">
            <Array as="points">
              <mxPoint x="263" y="400" />
            </Array>
          </mxGeometry>
        </mxCell>
        <mxCell id="9bkewiAqY9aisritPCOF-15" value="Utilisateur" style="shape=umlActor;verticalLabelPosition=bottom;verticalAlign=top;html=1;outlineConnect=0;sketch=1;hachureGap=4;jiggle=2;curveFitting=1;fontFamily=Architects Daughter;fontSource=https%3A%2F%2Ffonts.googleapis.com%2Fcss%3Ffamily%3DArchitects%2BDaughter;fontSize=20;fillColor=#d5e8d4;strokeColor=#82b366;" parent="1" vertex="1">
          <mxGeometry x="64" y="390" width="90" height="170" as="geometry" />
        </mxCell>
        <mxCell id="9bkewiAqY9aisritPCOF-16" value="&lt;div style=&quot;&quot;&gt;&lt;span style=&quot;background-color: initial;&quot;&gt;La partie messagerie est prévu dans le future&lt;/span&gt;&lt;/div&gt;" style="whiteSpace=wrap;html=1;shape=mxgraph.basic.rectCallout;dx=30;dy=15;boundedLbl=1;sketch=1;hachureGap=4;jiggle=2;curveFitting=1;fontFamily=Architects Daughter;fontSource=https%3A%2F%2Ffonts.googleapis.com%2Fcss%3Ffamily%3DArchitects%2BDaughter;fontSize=20;align=center;" parent="1" vertex="1">
          <mxGeometry x="624" y="250" width="180" height="150" as="geometry" />
        </mxCell>
        <mxCell id="9bkewiAqY9aisritPCOF-17" value="La partie inscription n&#39;est pas prévu dans notre cas je la laisse tout de même pour future améliorations" style="shape=callout;whiteSpace=wrap;html=1;perimeter=calloutPerimeter;sketch=1;hachureGap=4;jiggle=2;curveFitting=1;fontFamily=Architects Daughter;fontSource=https%3A%2F%2Ffonts.googleapis.com%2Fcss%3Ffamily%3DArchitects%2BDaughter;fontSize=20;position2=0.92;base=29;size=20;position=0.77;" parent="1" vertex="1">
          <mxGeometry x="10" y="230" width="220" height="170" as="geometry" />
        </mxCell>
      </root>
    </mxGraphModel>
  </diagram>
  <diagram id="KwvkCumbcHJ6E09tdNgQ" name="Diagramme de Séquence">
    <mxGraphModel dx="3452" dy="2504" grid="1" gridSize="10" guides="1" tooltips="1" connect="1" arrows="1" fold="1" page="1" pageScale="1" pageWidth="827" pageHeight="1169" math="0" shadow="0">
      <root>
        <mxCell id="0" />
        <mxCell id="1" parent="0" />
        <mxCell id="ansgDNFfcg6hh3RPVv8c-30" value="&lt;span&gt;Ticket&lt;/span&gt;" style="shape=umlFrame;whiteSpace=wrap;html=1;pointerEvents=0;sketch=1;hachureGap=4;jiggle=2;curveFitting=1;fontFamily=Architects Daughter;fontSource=https%3A%2F%2Ffonts.googleapis.com%2Fcss%3Ffamily%3DArchitects%2BDaughter;fillColor=#dae8fc;strokeColor=#6c8ebf;gradientColor=none;fontStyle=1" parent="1" vertex="1">
          <mxGeometry x="-150" y="470" width="2420" height="440" as="geometry" />
        </mxCell>
        <mxCell id="ansgDNFfcg6hh3RPVv8c-84" style="edgeStyle=elbowEdgeStyle;rounded=0;sketch=1;hachureGap=4;jiggle=2;curveFitting=1;orthogonalLoop=1;jettySize=auto;html=1;elbow=vertical;curved=0;fontFamily=Architects Daughter;fontSource=https%3A%2F%2Ffonts.googleapis.com%2Fcss%3Ffamily%3DArchitects%2BDaughter;fontStyle=1" parent="1" edge="1">
          <mxGeometry relative="1" as="geometry">
            <mxPoint x="935" y="780.11" as="sourcePoint" />
            <mxPoint x="-40" y="780.11" as="targetPoint" />
          </mxGeometry>
        </mxCell>
        <mxCell id="ansgDNFfcg6hh3RPVv8c-86" value="Delateticket()" style="edgeLabel;html=1;align=center;verticalAlign=middle;resizable=0;points=[];sketch=1;hachureGap=4;jiggle=2;curveFitting=1;fontFamily=Architects Daughter;fontSource=https%3A%2F%2Ffonts.googleapis.com%2Fcss%3Ffamily%3DArchitects%2BDaughter;fontStyle=1" parent="ansgDNFfcg6hh3RPVv8c-84" vertex="1" connectable="0">
          <mxGeometry x="-0.7453" y="-3" relative="1" as="geometry">
            <mxPoint x="16" y="3" as="offset" />
          </mxGeometry>
        </mxCell>
        <mxCell id="zSWJJtqc041nVuDrrt7G-2" value="&lt;span&gt;User&lt;/span&gt;" style="shape=umlFrame;whiteSpace=wrap;html=1;pointerEvents=0;sketch=1;hachureGap=4;jiggle=2;curveFitting=1;fontFamily=Architects Daughter;fontSource=https%3A%2F%2Ffonts.googleapis.com%2Fcss%3Ffamily%3DArchitects%2BDaughter;fillColor=#dae8fc;strokeColor=#6c8ebf;gradientColor=none;fontStyle=1" parent="1" vertex="1">
          <mxGeometry x="-150" y="-90" width="2420" height="440" as="geometry" />
        </mxCell>
        <mxCell id="At_2PPQVf1YFzlP5wZ5W-97" value="" style="group;fontFamily=Architects Daughter;fontSource=https%3A%2F%2Ffonts.googleapis.com%2Fcss%3Ffamily%3DArchitects%2BDaughter;fontStyle=1" parent="1" vertex="1" connectable="0">
          <mxGeometry x="1634" y="-45" width="590" height="350" as="geometry" />
        </mxCell>
        <mxCell id="At_2PPQVf1YFzlP5wZ5W-94" value="" style="edgeStyle=elbowEdgeStyle;rounded=0;sketch=1;hachureGap=4;jiggle=2;curveFitting=1;orthogonalLoop=1;jettySize=auto;html=1;elbow=vertical;curved=0;fontFamily=Architects Daughter;fontSource=https%3A%2F%2Ffonts.googleapis.com%2Fcss%3Ffamily%3DArchitects%2BDaughter;fontStyle=1" parent="At_2PPQVf1YFzlP5wZ5W-97" source="X9zVQ8NlHc8R4bNsiKsq-42" target="At_2PPQVf1YFzlP5wZ5W-92" edge="1">
          <mxGeometry relative="1" as="geometry" />
        </mxCell>
        <mxCell id="ansgDNFfcg6hh3RPVv8c-9" value="getDB()" style="edgeLabel;html=1;align=center;verticalAlign=middle;resizable=0;points=[];sketch=1;hachureGap=4;jiggle=2;curveFitting=1;fontFamily=Architects Daughter;fontSource=https%3A%2F%2Ffonts.googleapis.com%2Fcss%3Ffamily%3DArchitects%2BDaughter;fontStyle=1" parent="At_2PPQVf1YFzlP5wZ5W-94" vertex="1" connectable="0">
          <mxGeometry x="-0.0745" y="-3" relative="1" as="geometry">
            <mxPoint x="7" y="-8" as="offset" />
          </mxGeometry>
        </mxCell>
        <mxCell id="X9zVQ8NlHc8R4bNsiKsq-42" value=":DBConnext" style="shape=umlLifeline;perimeter=lifelinePerimeter;whiteSpace=wrap;container=0;dropTarget=0;collapsible=0;recursiveResize=0;outlineConnect=0;portConstraint=eastwest;newEdgeStyle={&quot;edgeStyle&quot;:&quot;elbowEdgeStyle&quot;,&quot;elbow&quot;:&quot;vertical&quot;,&quot;curved&quot;:0,&quot;rounded&quot;:0};hachureGap=4;fontFamily=Architects Daughter;html=1;labelBackgroundColor=none;labelBorderColor=none;sketch=1;curveFitting=1;jiggle=2;fontSource=https%3A%2F%2Ffonts.googleapis.com%2Fcss%3Ffamily%3DArchitects%2BDaughter;fontStyle=1" parent="At_2PPQVf1YFzlP5wZ5W-97" vertex="1">
          <mxGeometry x="60" y="40" width="100" height="300" as="geometry" />
        </mxCell>
        <mxCell id="X9zVQ8NlHc8R4bNsiKsq-43" value="" style="points=[];perimeter=orthogonalPerimeter;outlineConnect=0;targetShapes=umlLifeline;portConstraint=eastwest;newEdgeStyle={&quot;edgeStyle&quot;:&quot;elbowEdgeStyle&quot;,&quot;elbow&quot;:&quot;vertical&quot;,&quot;curved&quot;:0,&quot;rounded&quot;:0};hachureGap=4;fontFamily=Architects Daughter;html=1;labelBackgroundColor=none;labelBorderColor=none;sketch=1;curveFitting=1;jiggle=2;fontSource=https%3A%2F%2Ffonts.googleapis.com%2Fcss%3Ffamily%3DArchitects%2BDaughter;fontStyle=1" parent="X9zVQ8NlHc8R4bNsiKsq-42" vertex="1">
          <mxGeometry x="45" y="80" width="10" height="170" as="geometry" />
        </mxCell>
        <mxCell id="Z-QH0elTS8_E1j27wwTa-1" value=":UserManager" style="shape=umlLifeline;perimeter=lifelinePerimeter;whiteSpace=wrap;container=0;dropTarget=0;collapsible=0;recursiveResize=0;outlineConnect=0;portConstraint=eastwest;newEdgeStyle={&quot;edgeStyle&quot;:&quot;elbowEdgeStyle&quot;,&quot;elbow&quot;:&quot;vertical&quot;,&quot;curved&quot;:0,&quot;rounded&quot;:0};hachureGap=4;fontFamily=Architects Daughter;html=1;labelBackgroundColor=none;labelBorderColor=none;sketch=1;curveFitting=1;jiggle=2;fontSource=https%3A%2F%2Ffonts.googleapis.com%2Fcss%3Ffamily%3DArchitects%2BDaughter;fontStyle=1" parent="At_2PPQVf1YFzlP5wZ5W-97" vertex="1">
          <mxGeometry x="310" y="40" width="100" height="300" as="geometry" />
        </mxCell>
        <mxCell id="Z-QH0elTS8_E1j27wwTa-2" value="" style="points=[];perimeter=orthogonalPerimeter;outlineConnect=0;targetShapes=umlLifeline;portConstraint=eastwest;newEdgeStyle={&quot;edgeStyle&quot;:&quot;elbowEdgeStyle&quot;,&quot;elbow&quot;:&quot;vertical&quot;,&quot;curved&quot;:0,&quot;rounded&quot;:0};hachureGap=4;fontFamily=Architects Daughter;html=1;labelBackgroundColor=none;labelBorderColor=none;sketch=1;curveFitting=1;jiggle=2;fontSource=https%3A%2F%2Ffonts.googleapis.com%2Fcss%3Ffamily%3DArchitects%2BDaughter;fontStyle=1" parent="Z-QH0elTS8_E1j27wwTa-1" vertex="1">
          <mxGeometry x="45" y="80" width="10" height="170" as="geometry" />
        </mxCell>
        <mxCell id="zSWJJtqc041nVuDrrt7G-3" value="User Model (DBB)" style="swimlane;whiteSpace=wrap;html=1;sketch=1;hachureGap=4;jiggle=2;curveFitting=1;fontFamily=Architects Daughter;fontSource=https%3A%2F%2Ffonts.googleapis.com%2Fcss%3Ffamily%3DArchitects%2BDaughter;fillColor=#d5e8d4;strokeColor=#82b366;fontStyle=1" parent="At_2PPQVf1YFzlP5wZ5W-97" vertex="1">
          <mxGeometry width="590" height="350" as="geometry" />
        </mxCell>
        <mxCell id="At_2PPQVf1YFzlP5wZ5W-92" value=":Manager" style="shape=umlLifeline;perimeter=lifelinePerimeter;whiteSpace=wrap;container=0;dropTarget=0;collapsible=0;recursiveResize=0;outlineConnect=0;portConstraint=eastwest;newEdgeStyle={&quot;edgeStyle&quot;:&quot;elbowEdgeStyle&quot;,&quot;elbow&quot;:&quot;vertical&quot;,&quot;curved&quot;:0,&quot;rounded&quot;:0};hachureGap=4;fontFamily=Architects Daughter;html=1;labelBackgroundColor=none;labelBorderColor=none;sketch=1;curveFitting=1;jiggle=2;fontSource=https%3A%2F%2Ffonts.googleapis.com%2Fcss%3Ffamily%3DArchitects%2BDaughter;fontStyle=1" parent="zSWJJtqc041nVuDrrt7G-3" vertex="1">
          <mxGeometry x="190" y="40" width="100" height="300" as="geometry" />
        </mxCell>
        <mxCell id="At_2PPQVf1YFzlP5wZ5W-93" value="" style="points=[];perimeter=orthogonalPerimeter;outlineConnect=0;targetShapes=umlLifeline;portConstraint=eastwest;newEdgeStyle={&quot;edgeStyle&quot;:&quot;elbowEdgeStyle&quot;,&quot;elbow&quot;:&quot;vertical&quot;,&quot;curved&quot;:0,&quot;rounded&quot;:0};hachureGap=4;fontFamily=Architects Daughter;html=1;labelBackgroundColor=none;labelBorderColor=none;sketch=1;curveFitting=1;jiggle=2;fontSource=https%3A%2F%2Ffonts.googleapis.com%2Fcss%3Ffamily%3DArchitects%2BDaughter;fontStyle=1" parent="At_2PPQVf1YFzlP5wZ5W-92" vertex="1">
          <mxGeometry x="45" y="80" width="10" height="170" as="geometry" />
        </mxCell>
        <mxCell id="ansgDNFfcg6hh3RPVv8c-15" style="edgeStyle=elbowEdgeStyle;rounded=0;sketch=1;hachureGap=4;jiggle=2;curveFitting=1;orthogonalLoop=1;jettySize=auto;html=1;elbow=vertical;curved=0;fontFamily=Architects Daughter;fontSource=https%3A%2F%2Ffonts.googleapis.com%2Fcss%3Ffamily%3DArchitects%2BDaughter;fontStyle=1" parent="At_2PPQVf1YFzlP5wZ5W-97" edge="1">
          <mxGeometry relative="1" as="geometry">
            <mxPoint x="479.4999999999991" y="194.9971428571431" as="sourcePoint" />
            <mxPoint x="365" y="194.9971428571431" as="targetPoint" />
          </mxGeometry>
        </mxCell>
        <mxCell id="ansgDNFfcg6hh3RPVv8c-16" value="Setters =&amp;gt; ()" style="edgeLabel;html=1;align=center;verticalAlign=middle;resizable=0;points=[];sketch=1;hachureGap=4;jiggle=2;curveFitting=1;fontFamily=Architects Daughter;fontSource=https%3A%2F%2Ffonts.googleapis.com%2Fcss%3Ffamily%3DArchitects%2BDaughter;fontStyle=1" parent="ansgDNFfcg6hh3RPVv8c-15" vertex="1" connectable="0">
          <mxGeometry x="-0.3001" y="-3" relative="1" as="geometry">
            <mxPoint x="-14" y="3" as="offset" />
          </mxGeometry>
        </mxCell>
        <mxCell id="At_2PPQVf1YFzlP5wZ5W-1" value=":User" style="shape=umlLifeline;perimeter=lifelinePerimeter;whiteSpace=wrap;container=0;dropTarget=0;collapsible=0;recursiveResize=0;outlineConnect=0;portConstraint=eastwest;newEdgeStyle={&quot;edgeStyle&quot;:&quot;elbowEdgeStyle&quot;,&quot;elbow&quot;:&quot;vertical&quot;,&quot;curved&quot;:0,&quot;rounded&quot;:0};hachureGap=4;fontFamily=Architects Daughter;html=1;labelBackgroundColor=none;labelBorderColor=none;sketch=1;curveFitting=1;jiggle=2;fontSource=https%3A%2F%2Ffonts.googleapis.com%2Fcss%3Ffamily%3DArchitects%2BDaughter;fontStyle=1" parent="At_2PPQVf1YFzlP5wZ5W-97" vertex="1">
          <mxGeometry x="430" y="40" width="100" height="300" as="geometry" />
        </mxCell>
        <mxCell id="At_2PPQVf1YFzlP5wZ5W-2" value="" style="points=[];perimeter=orthogonalPerimeter;outlineConnect=0;targetShapes=umlLifeline;portConstraint=eastwest;newEdgeStyle={&quot;edgeStyle&quot;:&quot;elbowEdgeStyle&quot;,&quot;elbow&quot;:&quot;vertical&quot;,&quot;curved&quot;:0,&quot;rounded&quot;:0};hachureGap=4;fontFamily=Architects Daughter;html=1;labelBackgroundColor=none;labelBorderColor=none;sketch=1;curveFitting=1;jiggle=2;fontSource=https%3A%2F%2Ffonts.googleapis.com%2Fcss%3Ffamily%3DArchitects%2BDaughter;fontStyle=1" parent="At_2PPQVf1YFzlP5wZ5W-1" vertex="1">
          <mxGeometry x="45" y="80" width="10" height="170" as="geometry" />
        </mxCell>
        <mxCell id="At_2PPQVf1YFzlP5wZ5W-95" style="edgeStyle=elbowEdgeStyle;rounded=0;sketch=1;hachureGap=4;jiggle=2;curveFitting=1;orthogonalLoop=1;jettySize=auto;html=1;elbow=vertical;curved=0;fontFamily=Architects Daughter;fontSource=https%3A%2F%2Ffonts.googleapis.com%2Fcss%3Ffamily%3DArchitects%2BDaughter;fontStyle=1" parent="At_2PPQVf1YFzlP5wZ5W-97" edge="1">
          <mxGeometry relative="1" as="geometry">
            <mxPoint x="239.4473684210525" y="189.99736842105295" as="sourcePoint" />
            <mxPoint x="355" y="189.99736842105295" as="targetPoint" />
          </mxGeometry>
        </mxCell>
        <mxCell id="ansgDNFfcg6hh3RPVv8c-17" value="DataBase&lt;div&gt;Connection&lt;/div&gt;" style="edgeLabel;html=1;align=center;verticalAlign=middle;resizable=0;points=[];sketch=1;hachureGap=4;jiggle=2;curveFitting=1;fontFamily=Architects Daughter;fontSource=https%3A%2F%2Ffonts.googleapis.com%2Fcss%3Ffamily%3DArchitects%2BDaughter;fontStyle=1" parent="At_2PPQVf1YFzlP5wZ5W-95" vertex="1" connectable="0">
          <mxGeometry x="0.0623" y="2" relative="1" as="geometry">
            <mxPoint x="-5" y="-3" as="offset" />
          </mxGeometry>
        </mxCell>
        <mxCell id="At_2PPQVf1YFzlP5wZ5W-3" value="" style="edgeStyle=elbowEdgeStyle;rounded=0;sketch=1;hachureGap=4;jiggle=2;curveFitting=1;orthogonalLoop=1;jettySize=auto;html=1;elbow=horizontal;curved=0;fontFamily=Architects Daughter;fontSource=https%3A%2F%2Ffonts.googleapis.com%2Fcss%3Ffamily%3DArchitects%2BDaughter;fontStyle=1" parent="At_2PPQVf1YFzlP5wZ5W-97" edge="1">
          <mxGeometry relative="1" as="geometry">
            <mxPoint x="475" y="144.9971428571431" as="sourcePoint" />
            <mxPoint x="365" y="144.9971428571431" as="targetPoint" />
          </mxGeometry>
        </mxCell>
        <mxCell id="ansgDNFfcg6hh3RPVv8c-10" value="Getters =&amp;gt; ()" style="edgeLabel;html=1;align=center;verticalAlign=middle;resizable=0;points=[];sketch=1;hachureGap=4;jiggle=2;curveFitting=1;fontFamily=Architects Daughter;fontSource=https%3A%2F%2Ffonts.googleapis.com%2Fcss%3Ffamily%3DArchitects%2BDaughter;fontStyle=1" parent="At_2PPQVf1YFzlP5wZ5W-3" vertex="1" connectable="0">
          <mxGeometry x="-0.3273" y="-2" relative="1" as="geometry">
            <mxPoint x="-13" y="2" as="offset" />
          </mxGeometry>
        </mxCell>
        <mxCell id="ansgDNFfcg6hh3RPVv8c-1" style="edgeStyle=elbowEdgeStyle;rounded=0;sketch=1;hachureGap=4;jiggle=2;curveFitting=1;orthogonalLoop=1;jettySize=auto;html=1;elbow=vertical;curved=0;fontFamily=Architects Daughter;fontSource=https%3A%2F%2Ffonts.googleapis.com%2Fcss%3Ffamily%3DArchitects%2BDaughter;fontStyle=1" parent="1" edge="1">
          <mxGeometry relative="1" as="geometry">
            <mxPoint x="1115" y="239.9971428571431" as="sourcePoint" />
            <mxPoint x="-45" y="239.9971428571431" as="targetPoint" />
          </mxGeometry>
        </mxCell>
        <mxCell id="ansgDNFfcg6hh3RPVv8c-3" value="&lt;font face=&quot;Architects Daughter&quot; data-font-src=&quot;https://fonts.googleapis.com/css?family=Architects+Daughter&quot;&gt;&lt;span&gt;render&lt;/span&gt;&lt;/font&gt;" style="edgeLabel;html=1;align=center;verticalAlign=middle;resizable=0;points=[];sketch=1;hachureGap=4;jiggle=2;curveFitting=1;fontFamily=Architects Daughter;fontSource=https%3A%2F%2Ffonts.googleapis.com%2Fcss%3Ffamily%3DArchitects%2BDaughter;fontStyle=1" parent="ansgDNFfcg6hh3RPVv8c-1" vertex="1" connectable="0">
          <mxGeometry x="-0.0488" y="2" relative="1" as="geometry">
            <mxPoint x="481" y="3" as="offset" />
          </mxGeometry>
        </mxCell>
        <mxCell id="X9zVQ8NlHc8R4bNsiKsq-38" value=":Routeur" style="shape=umlLifeline;perimeter=lifelinePerimeter;whiteSpace=wrap;container=0;dropTarget=0;collapsible=0;recursiveResize=0;outlineConnect=0;portConstraint=eastwest;newEdgeStyle={&quot;edgeStyle&quot;:&quot;elbowEdgeStyle&quot;,&quot;elbow&quot;:&quot;vertical&quot;,&quot;curved&quot;:0,&quot;rounded&quot;:0};hachureGap=4;fontFamily=Architects Daughter;html=1;labelBackgroundColor=none;labelBorderColor=none;sketch=1;curveFitting=1;jiggle=2;fontSource=https%3A%2F%2Ffonts.googleapis.com%2Fcss%3Ffamily%3DArchitects%2BDaughter;fillColor=#f5f5f5;strokeColor=#666666;fontColor=#333333;fontStyle=1" parent="1" vertex="1">
          <mxGeometry x="-100" width="100" height="300" as="geometry" />
        </mxCell>
        <mxCell id="X9zVQ8NlHc8R4bNsiKsq-39" value="" style="points=[];perimeter=orthogonalPerimeter;outlineConnect=0;targetShapes=umlLifeline;portConstraint=eastwest;newEdgeStyle={&quot;edgeStyle&quot;:&quot;elbowEdgeStyle&quot;,&quot;elbow&quot;:&quot;vertical&quot;,&quot;curved&quot;:0,&quot;rounded&quot;:0};hachureGap=4;fontFamily=Architects Daughter;html=1;labelBackgroundColor=none;labelBorderColor=none;sketch=1;curveFitting=1;jiggle=2;fontSource=https%3A%2F%2Ffonts.googleapis.com%2Fcss%3Ffamily%3DArchitects%2BDaughter;fontStyle=1" parent="X9zVQ8NlHc8R4bNsiKsq-38" vertex="1">
          <mxGeometry x="45" y="70" width="10" height="190" as="geometry" />
        </mxCell>
        <mxCell id="X9zVQ8NlHc8R4bNsiKsq-41" value="" style="points=[];perimeter=orthogonalPerimeter;outlineConnect=0;targetShapes=umlLifeline;portConstraint=eastwest;newEdgeStyle={&quot;edgeStyle&quot;:&quot;elbowEdgeStyle&quot;,&quot;elbow&quot;:&quot;vertical&quot;,&quot;curved&quot;:0,&quot;rounded&quot;:0};hachureGap=4;fontFamily=Architects Daughter;html=1;labelBackgroundColor=none;labelBorderColor=none;sketch=1;curveFitting=1;jiggle=2;fontSource=https%3A%2F%2Ffonts.googleapis.com%2Fcss%3Ffamily%3DArchitects%2BDaughter;fontStyle=1" parent="X9zVQ8NlHc8R4bNsiKsq-38" vertex="1">
          <mxGeometry x="50" y="140" width="10" height="80" as="geometry" />
        </mxCell>
        <mxCell id="ansgDNFfcg6hh3RPVv8c-23" style="edgeStyle=elbowEdgeStyle;rounded=0;sketch=1;hachureGap=4;jiggle=2;curveFitting=1;orthogonalLoop=1;jettySize=auto;html=1;elbow=vertical;curved=0;fontFamily=Architects Daughter;fontSource=https%3A%2F%2Ffonts.googleapis.com%2Fcss%3Ffamily%3DArchitects%2BDaughter;fontStyle=1" parent="X9zVQ8NlHc8R4bNsiKsq-38" edge="1">
          <mxGeometry relative="1" as="geometry">
            <mxPoint x="59.07142857142844" y="184.2814285714289" as="sourcePoint" />
            <mxPoint x="1035" y="184" as="targetPoint" />
            <Array as="points">
              <mxPoint x="620" y="184" />
            </Array>
          </mxGeometry>
        </mxCell>
        <mxCell id="X9zVQ8NlHc8R4bNsiKsq-40" value="From index" style="verticalAlign=bottom;startArrow=oval;endArrow=block;startSize=8;edgeStyle=elbowEdgeStyle;elbow=vertical;curved=0;rounded=0;hachureGap=4;fontFamily=Architects Daughter;html=1;labelBackgroundColor=none;labelBorderColor=none;sketch=1;curveFitting=1;jiggle=2;fontSource=https%3A%2F%2Ffonts.googleapis.com%2Fcss%3Ffamily%3DArchitects%2BDaughter;exitX=0;exitY=0.41;exitDx=0;exitDy=0;exitPerimeter=0;fontStyle=1" parent="1" source="zSWJJtqc041nVuDrrt7G-2" target="X9zVQ8NlHc8R4bNsiKsq-39" edge="1">
          <mxGeometry x="-0.0051" relative="1" as="geometry">
            <mxPoint x="-95" y="90" as="sourcePoint" />
            <mxPoint as="offset" />
          </mxGeometry>
        </mxCell>
        <mxCell id="At_2PPQVf1YFzlP5wZ5W-98" value="" style="group;fontFamily=Architects Daughter;fontSource=https%3A%2F%2Ffonts.googleapis.com%2Fcss%3Ffamily%3DArchitects%2BDaughter;fontStyle=1" parent="1" vertex="1" connectable="0">
          <mxGeometry x="156" y="-45" width="530" height="350" as="geometry" />
        </mxCell>
        <mxCell id="At_2PPQVf1YFzlP5wZ5W-35" value=":userView" style="shape=umlLifeline;perimeter=lifelinePerimeter;whiteSpace=wrap;container=0;dropTarget=0;collapsible=0;recursiveResize=0;outlineConnect=0;portConstraint=eastwest;newEdgeStyle={&quot;edgeStyle&quot;:&quot;elbowEdgeStyle&quot;,&quot;elbow&quot;:&quot;vertical&quot;,&quot;curved&quot;:0,&quot;rounded&quot;:0};hachureGap=4;fontFamily=Architects Daughter;html=1;labelBackgroundColor=none;labelBorderColor=none;sketch=1;curveFitting=1;jiggle=2;fontSource=https%3A%2F%2Ffonts.googleapis.com%2Fcss%3Ffamily%3DArchitects%2BDaughter;fontStyle=1" parent="At_2PPQVf1YFzlP5wZ5W-98" vertex="1">
          <mxGeometry x="30" y="40" width="100" height="300" as="geometry" />
        </mxCell>
        <mxCell id="At_2PPQVf1YFzlP5wZ5W-36" value="" style="points=[];perimeter=orthogonalPerimeter;outlineConnect=0;targetShapes=umlLifeline;portConstraint=eastwest;newEdgeStyle={&quot;edgeStyle&quot;:&quot;elbowEdgeStyle&quot;,&quot;elbow&quot;:&quot;vertical&quot;,&quot;curved&quot;:0,&quot;rounded&quot;:0};hachureGap=4;fontFamily=Architects Daughter;html=1;labelBackgroundColor=none;labelBorderColor=none;sketch=1;curveFitting=1;jiggle=2;fontSource=https%3A%2F%2Ffonts.googleapis.com%2Fcss%3Ffamily%3DArchitects%2BDaughter;fontStyle=1" parent="At_2PPQVf1YFzlP5wZ5W-35" vertex="1">
          <mxGeometry x="45" y="80" width="10" height="70" as="geometry" />
        </mxCell>
        <mxCell id="At_2PPQVf1YFzlP5wZ5W-38" value="&lt;font data-font-src=&quot;https://fonts.googleapis.com/css?family=Architects+Daughter&quot; face=&quot;Architects Daughter&quot;&gt;:View&lt;/font&gt;" style="shape=umlLifeline;perimeter=lifelinePerimeter;whiteSpace=wrap;container=0;dropTarget=0;collapsible=0;recursiveResize=0;outlineConnect=0;portConstraint=eastwest;newEdgeStyle={&quot;edgeStyle&quot;:&quot;elbowEdgeStyle&quot;,&quot;elbow&quot;:&quot;vertical&quot;,&quot;curved&quot;:0,&quot;rounded&quot;:0};hachureGap=4;fontFamily=Architects Daughter;html=1;labelBackgroundColor=none;labelBorderColor=none;sketch=1;curveFitting=1;jiggle=2;fontSource=https%3A%2F%2Ffonts.googleapis.com%2Fcss%3Ffamily%3DArchitects%2BDaughter;fontStyle=1" parent="At_2PPQVf1YFzlP5wZ5W-98" vertex="1">
          <mxGeometry x="210" y="40" width="100" height="300" as="geometry" />
        </mxCell>
        <mxCell id="At_2PPQVf1YFzlP5wZ5W-39" value="" style="points=[];perimeter=orthogonalPerimeter;outlineConnect=0;targetShapes=umlLifeline;portConstraint=eastwest;newEdgeStyle={&quot;edgeStyle&quot;:&quot;elbowEdgeStyle&quot;,&quot;elbow&quot;:&quot;vertical&quot;,&quot;curved&quot;:0,&quot;rounded&quot;:0};hachureGap=4;fontFamily=Architects Daughter;html=1;labelBackgroundColor=none;labelBorderColor=none;sketch=1;curveFitting=1;jiggle=2;fontSource=https%3A%2F%2Ffonts.googleapis.com%2Fcss%3Ffamily%3DArchitects%2BDaughter;fontStyle=1" parent="At_2PPQVf1YFzlP5wZ5W-38" vertex="1">
          <mxGeometry x="45" y="80" width="10" height="90" as="geometry" />
        </mxCell>
        <mxCell id="At_2PPQVf1YFzlP5wZ5W-41" value=":indexView" style="shape=umlLifeline;perimeter=lifelinePerimeter;whiteSpace=wrap;container=0;dropTarget=0;collapsible=0;recursiveResize=0;outlineConnect=0;portConstraint=eastwest;newEdgeStyle={&quot;edgeStyle&quot;:&quot;elbowEdgeStyle&quot;,&quot;elbow&quot;:&quot;vertical&quot;,&quot;curved&quot;:0,&quot;rounded&quot;:0};hachureGap=4;fontFamily=Architects Daughter;html=1;labelBackgroundColor=none;labelBorderColor=none;sketch=1;curveFitting=1;jiggle=2;fontSource=https%3A%2F%2Ffonts.googleapis.com%2Fcss%3Ffamily%3DArchitects%2BDaughter;fontStyle=1" parent="At_2PPQVf1YFzlP5wZ5W-98" vertex="1">
          <mxGeometry x="390" y="40" width="100" height="300" as="geometry" />
        </mxCell>
        <mxCell id="At_2PPQVf1YFzlP5wZ5W-42" value="" style="points=[];perimeter=orthogonalPerimeter;outlineConnect=0;targetShapes=umlLifeline;portConstraint=eastwest;newEdgeStyle={&quot;edgeStyle&quot;:&quot;elbowEdgeStyle&quot;,&quot;elbow&quot;:&quot;vertical&quot;,&quot;curved&quot;:0,&quot;rounded&quot;:0};hachureGap=4;fontFamily=Architects Daughter;html=1;labelBackgroundColor=none;labelBorderColor=none;sketch=1;curveFitting=1;jiggle=2;fontSource=https%3A%2F%2Ffonts.googleapis.com%2Fcss%3Ffamily%3DArchitects%2BDaughter;fontStyle=1" parent="At_2PPQVf1YFzlP5wZ5W-41" vertex="1">
          <mxGeometry x="45" y="80" width="10" height="60" as="geometry" />
        </mxCell>
        <mxCell id="At_2PPQVf1YFzlP5wZ5W-46" value="User View (Frontend)" style="swimlane;whiteSpace=wrap;html=1;sketch=1;hachureGap=4;jiggle=2;curveFitting=1;fontFamily=Architects Daughter;fontSource=https%3A%2F%2Ffonts.googleapis.com%2Fcss%3Ffamily%3DArchitects%2BDaughter;fillColor=#f8cecc;strokeColor=#b85450;fontStyle=1" parent="At_2PPQVf1YFzlP5wZ5W-98" vertex="1">
          <mxGeometry width="530" height="350" as="geometry" />
        </mxCell>
        <mxCell id="At_2PPQVf1YFzlP5wZ5W-44" style="edgeStyle=elbowEdgeStyle;rounded=0;sketch=1;hachureGap=4;jiggle=2;curveFitting=1;orthogonalLoop=1;jettySize=auto;html=1;elbow=vertical;curved=0;fontFamily=Architects Daughter;fontSource=https%3A%2F%2Ffonts.googleapis.com%2Fcss%3Ffamily%3DArchitects%2BDaughter;fontStyle=1" parent="At_2PPQVf1YFzlP5wZ5W-46" edge="1">
          <mxGeometry relative="1" as="geometry">
            <mxPoint x="255" y="150" as="sourcePoint" />
            <mxPoint x="85" y="150" as="targetPoint" />
          </mxGeometry>
        </mxCell>
        <mxCell id="ansgDNFfcg6hh3RPVv8c-7" value="&lt;font face=&quot;Architects Daughter&quot; data-font-src=&quot;https://fonts.googleapis.com/css?family=Architects+Daughter&quot;&gt;Base&lt;/font&gt;" style="edgeLabel;html=1;align=center;verticalAlign=middle;resizable=0;points=[];sketch=1;hachureGap=4;jiggle=2;curveFitting=1;fontFamily=Architects Daughter;fontSource=https%3A%2F%2Ffonts.googleapis.com%2Fcss%3Ffamily%3DArchitects%2BDaughter;fontStyle=1" parent="At_2PPQVf1YFzlP5wZ5W-44" vertex="1" connectable="0">
          <mxGeometry x="0.4341" y="-3" relative="1" as="geometry">
            <mxPoint x="31" y="3" as="offset" />
          </mxGeometry>
        </mxCell>
        <mxCell id="At_2PPQVf1YFzlP5wZ5W-45" style="edgeStyle=elbowEdgeStyle;rounded=0;sketch=1;hachureGap=4;jiggle=2;curveFitting=1;orthogonalLoop=1;jettySize=auto;html=1;elbow=vertical;curved=0;fontFamily=Architects Daughter;fontSource=https%3A%2F%2Ffonts.googleapis.com%2Fcss%3Ffamily%3DArchitects%2BDaughter;fontStyle=1" parent="At_2PPQVf1YFzlP5wZ5W-98" edge="1">
          <mxGeometry relative="1" as="geometry">
            <mxPoint x="265" y="150.0028571428569" as="sourcePoint" />
            <mxPoint x="435" y="150.0028571428569" as="targetPoint" />
          </mxGeometry>
        </mxCell>
        <mxCell id="ansgDNFfcg6hh3RPVv8c-8" value="Base" style="edgeLabel;html=1;align=center;verticalAlign=middle;resizable=0;points=[];sketch=1;hachureGap=4;jiggle=2;curveFitting=1;fontFamily=Architects Daughter;fontSource=https%3A%2F%2Ffonts.googleapis.com%2Fcss%3Ffamily%3DArchitects%2BDaughter;fontStyle=1" parent="At_2PPQVf1YFzlP5wZ5W-45" vertex="1" connectable="0">
          <mxGeometry x="0.0501" y="2" relative="1" as="geometry">
            <mxPoint x="-10" y="2" as="offset" />
          </mxGeometry>
        </mxCell>
        <mxCell id="At_2PPQVf1YFzlP5wZ5W-99" value="" style="group;fontFamily=Architects Daughter;fontSource=https%3A%2F%2Ffonts.googleapis.com%2Fcss%3Ffamily%3DArchitects%2BDaughter;fontStyle=1" parent="1" vertex="1" connectable="0">
          <mxGeometry x="880" y="-45" width="500" height="350" as="geometry" />
        </mxCell>
        <mxCell id="At_2PPQVf1YFzlP5wZ5W-14" style="edgeStyle=elbowEdgeStyle;rounded=0;sketch=1;hachureGap=4;jiggle=2;curveFitting=1;orthogonalLoop=1;jettySize=auto;html=1;elbow=vertical;curved=0;fontFamily=Architects Daughter;fontSource=https%3A%2F%2Ffonts.googleapis.com%2Fcss%3Ffamily%3DArchitects%2BDaughter;fontStyle=1" parent="At_2PPQVf1YFzlP5wZ5W-99" edge="1">
          <mxGeometry relative="1" as="geometry">
            <mxPoint x="239.5" y="150" as="sourcePoint" />
            <mxPoint x="65" y="150" as="targetPoint" />
          </mxGeometry>
        </mxCell>
        <mxCell id="ansgDNFfcg6hh3RPVv8c-18" value="Redirrection" style="edgeLabel;html=1;align=center;verticalAlign=middle;resizable=0;points=[];sketch=1;hachureGap=4;jiggle=2;curveFitting=1;fontFamily=Architects Daughter;fontSource=https%3A%2F%2Ffonts.googleapis.com%2Fcss%3Ffamily%3DArchitects%2BDaughter;fontStyle=1" parent="At_2PPQVf1YFzlP5wZ5W-14" vertex="1" connectable="0">
          <mxGeometry x="0.0972" y="-7" relative="1" as="geometry">
            <mxPoint x="-4" y="2" as="offset" />
          </mxGeometry>
        </mxCell>
        <mxCell id="At_2PPQVf1YFzlP5wZ5W-17" value="Redirrection" style="edgeStyle=elbowEdgeStyle;rounded=0;sketch=1;hachureGap=4;jiggle=2;curveFitting=1;orthogonalLoop=1;jettySize=auto;html=1;elbow=horizontal;curved=0;fontFamily=Architects Daughter;fontSource=https%3A%2F%2Ffonts.googleapis.com%2Fcss%3Ffamily%3DArchitects%2BDaughter;fontStyle=1" parent="At_2PPQVf1YFzlP5wZ5W-99" edge="1">
          <mxGeometry relative="1" as="geometry">
            <mxPoint x="239.5" y="150" as="sourcePoint" />
            <mxPoint x="419.5" y="150" as="targetPoint" />
          </mxGeometry>
        </mxCell>
        <mxCell id="ansgDNFfcg6hh3RPVv8c-29" value="SetParams()" style="edgeStyle=elbowEdgeStyle;rounded=0;sketch=1;hachureGap=4;jiggle=2;curveFitting=1;orthogonalLoop=1;jettySize=auto;html=1;elbow=vertical;curved=0;fontFamily=Architects Daughter;fontSource=https%3A%2F%2Ffonts.googleapis.com%2Fcss%3Ffamily%3DArchitects%2BDaughter;fontStyle=1" parent="At_2PPQVf1YFzlP5wZ5W-99" source="At_2PPQVf1YFzlP5wZ5W-10" target="At_2PPQVf1YFzlP5wZ5W-16" edge="1">
          <mxGeometry relative="1" as="geometry" />
        </mxCell>
        <mxCell id="At_2PPQVf1YFzlP5wZ5W-10" value=":Controller" style="shape=umlLifeline;perimeter=lifelinePerimeter;whiteSpace=wrap;container=0;dropTarget=0;collapsible=0;recursiveResize=0;outlineConnect=0;portConstraint=eastwest;newEdgeStyle={&quot;edgeStyle&quot;:&quot;elbowEdgeStyle&quot;,&quot;elbow&quot;:&quot;vertical&quot;,&quot;curved&quot;:0,&quot;rounded&quot;:0};hachureGap=4;fontFamily=Architects Daughter;html=1;labelBackgroundColor=none;labelBorderColor=none;sketch=1;curveFitting=1;jiggle=2;fontSource=https%3A%2F%2Ffonts.googleapis.com%2Fcss%3Ffamily%3DArchitects%2BDaughter;fontStyle=1" parent="At_2PPQVf1YFzlP5wZ5W-99" vertex="1">
          <mxGeometry x="190" y="40" width="100" height="300" as="geometry" />
        </mxCell>
        <mxCell id="At_2PPQVf1YFzlP5wZ5W-11" value="" style="points=[];perimeter=orthogonalPerimeter;outlineConnect=0;targetShapes=umlLifeline;portConstraint=eastwest;newEdgeStyle={&quot;edgeStyle&quot;:&quot;elbowEdgeStyle&quot;,&quot;elbow&quot;:&quot;vertical&quot;,&quot;curved&quot;:0,&quot;rounded&quot;:0};hachureGap=4;fontFamily=Architects Daughter;html=1;labelBackgroundColor=none;labelBorderColor=none;sketch=1;curveFitting=1;jiggle=2;fontSource=https%3A%2F%2Ffonts.googleapis.com%2Fcss%3Ffamily%3DArchitects%2BDaughter;fontStyle=1" parent="At_2PPQVf1YFzlP5wZ5W-10" vertex="1">
          <mxGeometry x="45" y="80" width="10" height="170" as="geometry" />
        </mxCell>
        <mxCell id="At_2PPQVf1YFzlP5wZ5W-15" value=":IndexController" style="shape=umlLifeline;perimeter=lifelinePerimeter;whiteSpace=wrap;container=0;dropTarget=0;collapsible=0;recursiveResize=0;outlineConnect=0;portConstraint=eastwest;newEdgeStyle={&quot;edgeStyle&quot;:&quot;elbowEdgeStyle&quot;,&quot;elbow&quot;:&quot;vertical&quot;,&quot;curved&quot;:0,&quot;rounded&quot;:0};hachureGap=4;fontFamily=Architects Daughter;html=1;labelBackgroundColor=none;labelBorderColor=none;sketch=1;curveFitting=1;jiggle=2;fontSource=https%3A%2F%2Ffonts.googleapis.com%2Fcss%3Ffamily%3DArchitects%2BDaughter;fontStyle=1" parent="At_2PPQVf1YFzlP5wZ5W-99" vertex="1">
          <mxGeometry x="370" y="40" width="100" height="300" as="geometry" />
        </mxCell>
        <mxCell id="At_2PPQVf1YFzlP5wZ5W-16" value="" style="points=[];perimeter=orthogonalPerimeter;outlineConnect=0;targetShapes=umlLifeline;portConstraint=eastwest;newEdgeStyle={&quot;edgeStyle&quot;:&quot;elbowEdgeStyle&quot;,&quot;elbow&quot;:&quot;vertical&quot;,&quot;curved&quot;:0,&quot;rounded&quot;:0};hachureGap=4;fontFamily=Architects Daughter;html=1;labelBackgroundColor=none;labelBorderColor=none;sketch=1;curveFitting=1;jiggle=2;fontSource=https%3A%2F%2Ffonts.googleapis.com%2Fcss%3Ffamily%3DArchitects%2BDaughter;fontStyle=1" parent="At_2PPQVf1YFzlP5wZ5W-15" vertex="1">
          <mxGeometry x="45" y="80" width="10" height="170" as="geometry" />
        </mxCell>
        <mxCell id="At_2PPQVf1YFzlP5wZ5W-33" value="&lt;font face=&quot;Architects Daughter&quot; data-font-src=&quot;https://fonts.googleapis.com/css?family=Architects+Daughter&quot;&gt;User Controller (Backend)&lt;/font&gt;" style="swimlane;whiteSpace=wrap;html=1;sketch=1;hachureGap=4;jiggle=2;curveFitting=1;fontFamily=Architects Daughter;fontSource=https%3A%2F%2Ffonts.googleapis.com%2Fcss%3Ffamily%3DArchitects%2BDaughter;fillColor=#ffcd28;strokeColor=#d79b00;gradientColor=none;fontStyle=1" parent="At_2PPQVf1YFzlP5wZ5W-99" vertex="1">
          <mxGeometry width="500" height="350" as="geometry" />
        </mxCell>
        <mxCell id="ansgDNFfcg6hh3RPVv8c-27" style="edgeStyle=elbowEdgeStyle;rounded=0;sketch=1;hachureGap=4;jiggle=2;curveFitting=1;orthogonalLoop=1;jettySize=auto;html=1;elbow=vertical;curved=0;fontFamily=Architects Daughter;fontSource=https%3A%2F%2Ffonts.googleapis.com%2Fcss%3Ffamily%3DArchitects%2BDaughter;fontStyle=1" parent="At_2PPQVf1YFzlP5wZ5W-33" edge="1">
          <mxGeometry relative="1" as="geometry">
            <mxPoint x="-459" y="204.28714285714312" as="sourcePoint" />
            <mxPoint x="235" y="204.28714285714312" as="targetPoint" />
          </mxGeometry>
        </mxCell>
        <mxCell id="ansgDNFfcg6hh3RPVv8c-28" value="PathRoute" style="edgeLabel;html=1;align=center;verticalAlign=middle;resizable=0;points=[];sketch=1;hachureGap=4;jiggle=2;curveFitting=1;fontFamily=Architects Daughter;fontSource=https%3A%2F%2Ffonts.googleapis.com%2Fcss%3Ffamily%3DArchitects%2BDaughter;fontStyle=1" parent="ansgDNFfcg6hh3RPVv8c-27" vertex="1" connectable="0">
          <mxGeometry x="-0.7108" y="3" relative="1" as="geometry">
            <mxPoint y="4" as="offset" />
          </mxGeometry>
        </mxCell>
        <mxCell id="At_2PPQVf1YFzlP5wZ5W-4" value=":UserController" style="shape=umlLifeline;perimeter=lifelinePerimeter;whiteSpace=wrap;container=0;dropTarget=0;collapsible=0;recursiveResize=0;outlineConnect=0;portConstraint=eastwest;newEdgeStyle={&quot;edgeStyle&quot;:&quot;elbowEdgeStyle&quot;,&quot;elbow&quot;:&quot;vertical&quot;,&quot;curved&quot;:0,&quot;rounded&quot;:0};hachureGap=4;fontFamily=Architects Daughter;html=1;labelBackgroundColor=none;labelBorderColor=none;sketch=1;curveFitting=1;jiggle=2;fontSource=https%3A%2F%2Ffonts.googleapis.com%2Fcss%3Ffamily%3DArchitects%2BDaughter;fontStyle=1" parent="At_2PPQVf1YFzlP5wZ5W-99" vertex="1">
          <mxGeometry x="10" y="40" width="100" height="300" as="geometry" />
        </mxCell>
        <mxCell id="At_2PPQVf1YFzlP5wZ5W-5" value="" style="points=[];perimeter=orthogonalPerimeter;outlineConnect=0;targetShapes=umlLifeline;portConstraint=eastwest;newEdgeStyle={&quot;edgeStyle&quot;:&quot;elbowEdgeStyle&quot;,&quot;elbow&quot;:&quot;vertical&quot;,&quot;curved&quot;:0,&quot;rounded&quot;:0};hachureGap=4;fontFamily=Architects Daughter;html=1;labelBackgroundColor=none;labelBorderColor=none;sketch=1;curveFitting=1;jiggle=2;fontSource=https%3A%2F%2Ffonts.googleapis.com%2Fcss%3Ffamily%3DArchitects%2BDaughter;fontStyle=1" parent="At_2PPQVf1YFzlP5wZ5W-4" vertex="1">
          <mxGeometry x="45" y="80" width="10" height="140" as="geometry" />
        </mxCell>
        <mxCell id="At_2PPQVf1YFzlP5wZ5W-101" value="" style="shape=flexArrow;endArrow=classic;startArrow=classic;html=1;rounded=0;sketch=1;hachureGap=4;jiggle=2;curveFitting=1;fontFamily=Architects Daughter;fontSource=https%3A%2F%2Ffonts.googleapis.com%2Fcss%3Ffamily%3DArchitects%2BDaughter;fontStyle=1" parent="1" edge="1">
          <mxGeometry width="100" height="100" relative="1" as="geometry">
            <mxPoint x="1400" y="130" as="sourcePoint" />
            <mxPoint x="1610" y="130" as="targetPoint" />
          </mxGeometry>
        </mxCell>
        <mxCell id="At_2PPQVf1YFzlP5wZ5W-102" value="" style="shape=flexArrow;endArrow=classic;html=1;rounded=0;sketch=1;hachureGap=4;jiggle=2;curveFitting=1;fontFamily=Architects Daughter;fontSource=https%3A%2F%2Ffonts.googleapis.com%2Fcss%3Ffamily%3DArchitects%2BDaughter;fontStyle=1" parent="1" edge="1">
          <mxGeometry width="50" height="50" relative="1" as="geometry">
            <mxPoint x="860" y="130" as="sourcePoint" />
            <mxPoint x="700" y="130" as="targetPoint" />
          </mxGeometry>
        </mxCell>
        <mxCell id="ansgDNFfcg6hh3RPVv8c-2" value="&lt;h1&gt;&lt;strike&gt;C&lt;/strike&gt;R&lt;strike&gt;E&lt;/strike&gt;D (R et D)&lt;/h1&gt;&lt;p&gt;La Classe &lt;u style=&quot;background-color: rgb(51, 255, 51);&quot;&gt;User&lt;/u&gt;&amp;nbsp;ne prévoit la création ni l&#39;édition de l&#39;utilisateur, mais uniquement la lecture et la suppression, pour la connexion et éventuellement la suppression&amp;nbsp;&amp;nbsp;&lt;/p&gt;" style="text;html=1;spacing=5;spacingTop=-20;whiteSpace=wrap;overflow=hidden;rounded=0;fontFamily=Architects Daughter;fontSource=https%3A%2F%2Ffonts.googleapis.com%2Fcss%3Ffamily%3DArchitects%2BDaughter;fontStyle=1" parent="1" vertex="1">
          <mxGeometry x="2310" y="-80" width="190" height="140" as="geometry" />
        </mxCell>
        <mxCell id="ansgDNFfcg6hh3RPVv8c-20" style="edgeStyle=elbowEdgeStyle;rounded=0;sketch=1;hachureGap=4;jiggle=2;curveFitting=1;orthogonalLoop=1;jettySize=auto;html=1;elbow=vertical;curved=0;fontFamily=Architects Daughter;fontSource=https%3A%2F%2Ffonts.googleapis.com%2Fcss%3Ffamily%3DArchitects%2BDaughter;fontStyle=1" parent="1" edge="1">
          <mxGeometry relative="1" as="geometry">
            <mxPoint x="935" y="200" as="sourcePoint" />
            <mxPoint x="-40" y="200" as="targetPoint" />
          </mxGeometry>
        </mxCell>
        <mxCell id="ansgDNFfcg6hh3RPVv8c-21" value="LogIn()" style="edgeLabel;html=1;align=center;verticalAlign=middle;resizable=0;points=[];sketch=1;hachureGap=4;jiggle=2;curveFitting=1;fontFamily=Architects Daughter;fontSource=https%3A%2F%2Ffonts.googleapis.com%2Fcss%3Ffamily%3DArchitects%2BDaughter;fontStyle=1" parent="ansgDNFfcg6hh3RPVv8c-20" vertex="1" connectable="0">
          <mxGeometry x="-0.6345" y="1" relative="1" as="geometry">
            <mxPoint x="-697" y="-21" as="offset" />
          </mxGeometry>
        </mxCell>
        <mxCell id="ansgDNFfcg6hh3RPVv8c-22" value="LogOut()" style="edgeLabel;html=1;align=center;verticalAlign=middle;resizable=0;points=[];sketch=1;hachureGap=4;jiggle=2;curveFitting=1;fontFamily=Architects Daughter;fontSource=https%3A%2F%2Ffonts.googleapis.com%2Fcss%3Ffamily%3DArchitects%2BDaughter;fontStyle=1" parent="ansgDNFfcg6hh3RPVv8c-20" vertex="1" connectable="0">
          <mxGeometry x="-0.7453" y="-3" relative="1" as="geometry">
            <mxPoint x="16" y="3" as="offset" />
          </mxGeometry>
        </mxCell>
        <mxCell id="ansgDNFfcg6hh3RPVv8c-24" value="" style="shape=flexArrow;endArrow=classic;html=1;rounded=0;sketch=1;hachureGap=4;jiggle=2;curveFitting=1;fontFamily=Architects Daughter;fontSource=https%3A%2F%2Ffonts.googleapis.com%2Fcss%3Ffamily%3DArchitects%2BDaughter;fontStyle=1" parent="1" edge="1">
          <mxGeometry width="50" height="50" relative="1" as="geometry">
            <mxPoint x="140" y="129.29" as="sourcePoint" />
            <mxPoint x="-20" y="129.29" as="targetPoint" />
          </mxGeometry>
        </mxCell>
        <mxCell id="ansgDNFfcg6hh3RPVv8c-31" value="" style="group;fontFamily=Architects Daughter;fontSource=https%3A%2F%2Ffonts.googleapis.com%2Fcss%3Ffamily%3DArchitects%2BDaughter;fontStyle=1" parent="1" vertex="1" connectable="0">
          <mxGeometry x="1634" y="515" width="590" height="350" as="geometry" />
        </mxCell>
        <mxCell id="ansgDNFfcg6hh3RPVv8c-32" value="" style="edgeStyle=elbowEdgeStyle;rounded=0;sketch=1;hachureGap=4;jiggle=2;curveFitting=1;orthogonalLoop=1;jettySize=auto;html=1;elbow=vertical;curved=0;fontFamily=Architects Daughter;fontSource=https%3A%2F%2Ffonts.googleapis.com%2Fcss%3Ffamily%3DArchitects%2BDaughter;fontStyle=1" parent="ansgDNFfcg6hh3RPVv8c-31" source="ansgDNFfcg6hh3RPVv8c-34" target="ansgDNFfcg6hh3RPVv8c-39" edge="1">
          <mxGeometry relative="1" as="geometry" />
        </mxCell>
        <mxCell id="ansgDNFfcg6hh3RPVv8c-33" value="getDB()" style="edgeLabel;html=1;align=center;verticalAlign=middle;resizable=0;points=[];sketch=1;hachureGap=4;jiggle=2;curveFitting=1;fontFamily=Architects Daughter;fontSource=https%3A%2F%2Ffonts.googleapis.com%2Fcss%3Ffamily%3DArchitects%2BDaughter;fontStyle=1" parent="ansgDNFfcg6hh3RPVv8c-32" vertex="1" connectable="0">
          <mxGeometry x="-0.0745" y="-3" relative="1" as="geometry">
            <mxPoint x="7" y="-8" as="offset" />
          </mxGeometry>
        </mxCell>
        <mxCell id="ansgDNFfcg6hh3RPVv8c-34" value=":DBConnext" style="shape=umlLifeline;perimeter=lifelinePerimeter;whiteSpace=wrap;container=0;dropTarget=0;collapsible=0;recursiveResize=0;outlineConnect=0;portConstraint=eastwest;newEdgeStyle={&quot;edgeStyle&quot;:&quot;elbowEdgeStyle&quot;,&quot;elbow&quot;:&quot;vertical&quot;,&quot;curved&quot;:0,&quot;rounded&quot;:0};hachureGap=4;fontFamily=Architects Daughter;html=1;labelBackgroundColor=none;labelBorderColor=none;sketch=1;curveFitting=1;jiggle=2;fontSource=https%3A%2F%2Ffonts.googleapis.com%2Fcss%3Ffamily%3DArchitects%2BDaughter;fontStyle=1" parent="ansgDNFfcg6hh3RPVv8c-31" vertex="1">
          <mxGeometry x="60" y="40" width="100" height="300" as="geometry" />
        </mxCell>
        <mxCell id="ansgDNFfcg6hh3RPVv8c-35" value="" style="points=[];perimeter=orthogonalPerimeter;outlineConnect=0;targetShapes=umlLifeline;portConstraint=eastwest;newEdgeStyle={&quot;edgeStyle&quot;:&quot;elbowEdgeStyle&quot;,&quot;elbow&quot;:&quot;vertical&quot;,&quot;curved&quot;:0,&quot;rounded&quot;:0};hachureGap=4;fontFamily=Architects Daughter;html=1;labelBackgroundColor=none;labelBorderColor=none;sketch=1;curveFitting=1;jiggle=2;fontSource=https%3A%2F%2Ffonts.googleapis.com%2Fcss%3Ffamily%3DArchitects%2BDaughter;fontStyle=1" parent="ansgDNFfcg6hh3RPVv8c-34" vertex="1">
          <mxGeometry x="45" y="80" width="10" height="170" as="geometry" />
        </mxCell>
        <mxCell id="ansgDNFfcg6hh3RPVv8c-36" value=":TicketManager" style="shape=umlLifeline;perimeter=lifelinePerimeter;whiteSpace=wrap;container=0;dropTarget=0;collapsible=0;recursiveResize=0;outlineConnect=0;portConstraint=eastwest;newEdgeStyle={&quot;edgeStyle&quot;:&quot;elbowEdgeStyle&quot;,&quot;elbow&quot;:&quot;vertical&quot;,&quot;curved&quot;:0,&quot;rounded&quot;:0};hachureGap=4;fontFamily=Architects Daughter;html=1;labelBackgroundColor=none;labelBorderColor=none;sketch=1;curveFitting=1;jiggle=2;fontSource=https%3A%2F%2Ffonts.googleapis.com%2Fcss%3Ffamily%3DArchitects%2BDaughter;fontStyle=1" parent="ansgDNFfcg6hh3RPVv8c-31" vertex="1">
          <mxGeometry x="310" y="40" width="100" height="300" as="geometry" />
        </mxCell>
        <mxCell id="ansgDNFfcg6hh3RPVv8c-37" value="" style="points=[];perimeter=orthogonalPerimeter;outlineConnect=0;targetShapes=umlLifeline;portConstraint=eastwest;newEdgeStyle={&quot;edgeStyle&quot;:&quot;elbowEdgeStyle&quot;,&quot;elbow&quot;:&quot;vertical&quot;,&quot;curved&quot;:0,&quot;rounded&quot;:0};hachureGap=4;fontFamily=Architects Daughter;html=1;labelBackgroundColor=none;labelBorderColor=none;sketch=1;curveFitting=1;jiggle=2;fontSource=https%3A%2F%2Ffonts.googleapis.com%2Fcss%3Ffamily%3DArchitects%2BDaughter;fontStyle=1" parent="ansgDNFfcg6hh3RPVv8c-36" vertex="1">
          <mxGeometry x="45" y="80" width="10" height="170" as="geometry" />
        </mxCell>
        <mxCell id="ansgDNFfcg6hh3RPVv8c-38" value="Ticket Model (DBB)" style="swimlane;whiteSpace=wrap;html=1;sketch=1;hachureGap=4;jiggle=2;curveFitting=1;fontFamily=Architects Daughter;fontSource=https%3A%2F%2Ffonts.googleapis.com%2Fcss%3Ffamily%3DArchitects%2BDaughter;fillColor=#d5e8d4;strokeColor=#82b366;fontStyle=1" parent="ansgDNFfcg6hh3RPVv8c-31" vertex="1">
          <mxGeometry width="590" height="350" as="geometry" />
        </mxCell>
        <mxCell id="ansgDNFfcg6hh3RPVv8c-39" value=":Manager" style="shape=umlLifeline;perimeter=lifelinePerimeter;whiteSpace=wrap;container=0;dropTarget=0;collapsible=0;recursiveResize=0;outlineConnect=0;portConstraint=eastwest;newEdgeStyle={&quot;edgeStyle&quot;:&quot;elbowEdgeStyle&quot;,&quot;elbow&quot;:&quot;vertical&quot;,&quot;curved&quot;:0,&quot;rounded&quot;:0};hachureGap=4;fontFamily=Architects Daughter;html=1;labelBackgroundColor=none;labelBorderColor=none;sketch=1;curveFitting=1;jiggle=2;fontSource=https%3A%2F%2Ffonts.googleapis.com%2Fcss%3Ffamily%3DArchitects%2BDaughter;fontStyle=1" parent="ansgDNFfcg6hh3RPVv8c-38" vertex="1">
          <mxGeometry x="190" y="40" width="100" height="300" as="geometry" />
        </mxCell>
        <mxCell id="ansgDNFfcg6hh3RPVv8c-40" value="" style="points=[];perimeter=orthogonalPerimeter;outlineConnect=0;targetShapes=umlLifeline;portConstraint=eastwest;newEdgeStyle={&quot;edgeStyle&quot;:&quot;elbowEdgeStyle&quot;,&quot;elbow&quot;:&quot;vertical&quot;,&quot;curved&quot;:0,&quot;rounded&quot;:0};hachureGap=4;fontFamily=Architects Daughter;html=1;labelBackgroundColor=none;labelBorderColor=none;sketch=1;curveFitting=1;jiggle=2;fontSource=https%3A%2F%2Ffonts.googleapis.com%2Fcss%3Ffamily%3DArchitects%2BDaughter;fontStyle=1" parent="ansgDNFfcg6hh3RPVv8c-39" vertex="1">
          <mxGeometry x="45" y="80" width="10" height="170" as="geometry" />
        </mxCell>
        <mxCell id="ansgDNFfcg6hh3RPVv8c-41" style="edgeStyle=elbowEdgeStyle;rounded=0;sketch=1;hachureGap=4;jiggle=2;curveFitting=1;orthogonalLoop=1;jettySize=auto;html=1;elbow=vertical;curved=0;fontFamily=Architects Daughter;fontSource=https%3A%2F%2Ffonts.googleapis.com%2Fcss%3Ffamily%3DArchitects%2BDaughter;fontStyle=1" parent="ansgDNFfcg6hh3RPVv8c-31" edge="1">
          <mxGeometry relative="1" as="geometry">
            <mxPoint x="479.4999999999991" y="194.9971428571431" as="sourcePoint" />
            <mxPoint x="365" y="194.9971428571431" as="targetPoint" />
          </mxGeometry>
        </mxCell>
        <mxCell id="ansgDNFfcg6hh3RPVv8c-42" value="Setters =&amp;gt; ()" style="edgeLabel;html=1;align=center;verticalAlign=middle;resizable=0;points=[];sketch=1;hachureGap=4;jiggle=2;curveFitting=1;fontFamily=Architects Daughter;fontSource=https%3A%2F%2Ffonts.googleapis.com%2Fcss%3Ffamily%3DArchitects%2BDaughter;fontStyle=1" parent="ansgDNFfcg6hh3RPVv8c-41" vertex="1" connectable="0">
          <mxGeometry x="-0.3001" y="-3" relative="1" as="geometry">
            <mxPoint x="-14" y="3" as="offset" />
          </mxGeometry>
        </mxCell>
        <mxCell id="ansgDNFfcg6hh3RPVv8c-43" value=":Ticket" style="shape=umlLifeline;perimeter=lifelinePerimeter;whiteSpace=wrap;container=0;dropTarget=0;collapsible=0;recursiveResize=0;outlineConnect=0;portConstraint=eastwest;newEdgeStyle={&quot;edgeStyle&quot;:&quot;elbowEdgeStyle&quot;,&quot;elbow&quot;:&quot;vertical&quot;,&quot;curved&quot;:0,&quot;rounded&quot;:0};hachureGap=4;fontFamily=Architects Daughter;html=1;labelBackgroundColor=none;labelBorderColor=none;sketch=1;curveFitting=1;jiggle=2;fontSource=https%3A%2F%2Ffonts.googleapis.com%2Fcss%3Ffamily%3DArchitects%2BDaughter;fontStyle=1" parent="ansgDNFfcg6hh3RPVv8c-31" vertex="1">
          <mxGeometry x="430" y="40" width="100" height="300" as="geometry" />
        </mxCell>
        <mxCell id="ansgDNFfcg6hh3RPVv8c-44" value="" style="points=[];perimeter=orthogonalPerimeter;outlineConnect=0;targetShapes=umlLifeline;portConstraint=eastwest;newEdgeStyle={&quot;edgeStyle&quot;:&quot;elbowEdgeStyle&quot;,&quot;elbow&quot;:&quot;vertical&quot;,&quot;curved&quot;:0,&quot;rounded&quot;:0};hachureGap=4;fontFamily=Architects Daughter;html=1;labelBackgroundColor=none;labelBorderColor=none;sketch=1;curveFitting=1;jiggle=2;fontSource=https%3A%2F%2Ffonts.googleapis.com%2Fcss%3Ffamily%3DArchitects%2BDaughter;fontStyle=1" parent="ansgDNFfcg6hh3RPVv8c-43" vertex="1">
          <mxGeometry x="45" y="80" width="10" height="170" as="geometry" />
        </mxCell>
        <mxCell id="ansgDNFfcg6hh3RPVv8c-45" style="edgeStyle=elbowEdgeStyle;rounded=0;sketch=1;hachureGap=4;jiggle=2;curveFitting=1;orthogonalLoop=1;jettySize=auto;html=1;elbow=vertical;curved=0;fontFamily=Architects Daughter;fontSource=https%3A%2F%2Ffonts.googleapis.com%2Fcss%3Ffamily%3DArchitects%2BDaughter;fontStyle=1" parent="ansgDNFfcg6hh3RPVv8c-31" edge="1">
          <mxGeometry relative="1" as="geometry">
            <mxPoint x="239.4473684210525" y="189.99736842105295" as="sourcePoint" />
            <mxPoint x="355" y="189.99736842105295" as="targetPoint" />
          </mxGeometry>
        </mxCell>
        <mxCell id="ansgDNFfcg6hh3RPVv8c-46" value="DataBase&lt;div&gt;Connection&lt;/div&gt;" style="edgeLabel;html=1;align=center;verticalAlign=middle;resizable=0;points=[];sketch=1;hachureGap=4;jiggle=2;curveFitting=1;fontFamily=Architects Daughter;fontSource=https%3A%2F%2Ffonts.googleapis.com%2Fcss%3Ffamily%3DArchitects%2BDaughter;fontStyle=1" parent="ansgDNFfcg6hh3RPVv8c-45" vertex="1" connectable="0">
          <mxGeometry x="0.0623" y="2" relative="1" as="geometry">
            <mxPoint x="-5" y="-3" as="offset" />
          </mxGeometry>
        </mxCell>
        <mxCell id="ansgDNFfcg6hh3RPVv8c-47" value="" style="edgeStyle=elbowEdgeStyle;rounded=0;sketch=1;hachureGap=4;jiggle=2;curveFitting=1;orthogonalLoop=1;jettySize=auto;html=1;elbow=horizontal;curved=0;fontFamily=Architects Daughter;fontSource=https%3A%2F%2Ffonts.googleapis.com%2Fcss%3Ffamily%3DArchitects%2BDaughter;fontStyle=1" parent="ansgDNFfcg6hh3RPVv8c-31" edge="1">
          <mxGeometry relative="1" as="geometry">
            <mxPoint x="475" y="144.9971428571431" as="sourcePoint" />
            <mxPoint x="365" y="144.9971428571431" as="targetPoint" />
          </mxGeometry>
        </mxCell>
        <mxCell id="ansgDNFfcg6hh3RPVv8c-48" value="Getters =&amp;gt; ()" style="edgeLabel;html=1;align=center;verticalAlign=middle;resizable=0;points=[];sketch=1;hachureGap=4;jiggle=2;curveFitting=1;fontFamily=Architects Daughter;fontSource=https%3A%2F%2Ffonts.googleapis.com%2Fcss%3Ffamily%3DArchitects%2BDaughter;fontStyle=1" parent="ansgDNFfcg6hh3RPVv8c-47" vertex="1" connectable="0">
          <mxGeometry x="-0.3273" y="-2" relative="1" as="geometry">
            <mxPoint x="-13" y="2" as="offset" />
          </mxGeometry>
        </mxCell>
        <mxCell id="ansgDNFfcg6hh3RPVv8c-49" style="edgeStyle=elbowEdgeStyle;rounded=0;sketch=1;hachureGap=4;jiggle=2;curveFitting=1;orthogonalLoop=1;jettySize=auto;html=1;elbow=vertical;curved=0;fontFamily=Architects Daughter;fontSource=https%3A%2F%2Ffonts.googleapis.com%2Fcss%3Ffamily%3DArchitects%2BDaughter;fontStyle=1" parent="1" edge="1">
          <mxGeometry relative="1" as="geometry">
            <mxPoint x="1115" y="799.9971428571431" as="sourcePoint" />
            <mxPoint x="-45" y="799.9971428571431" as="targetPoint" />
          </mxGeometry>
        </mxCell>
        <mxCell id="ansgDNFfcg6hh3RPVv8c-50" value="&lt;font face=&quot;Architects Daughter&quot; data-font-src=&quot;https://fonts.googleapis.com/css?family=Architects+Daughter&quot;&gt;&lt;span&gt;render&lt;/span&gt;&lt;/font&gt;" style="edgeLabel;html=1;align=center;verticalAlign=middle;resizable=0;points=[];sketch=1;hachureGap=4;jiggle=2;curveFitting=1;fontFamily=Architects Daughter;fontSource=https%3A%2F%2Ffonts.googleapis.com%2Fcss%3Ffamily%3DArchitects%2BDaughter;fontStyle=1" parent="ansgDNFfcg6hh3RPVv8c-49" vertex="1" connectable="0">
          <mxGeometry x="-0.0488" y="2" relative="1" as="geometry">
            <mxPoint x="481" y="-2" as="offset" />
          </mxGeometry>
        </mxCell>
        <mxCell id="ansgDNFfcg6hh3RPVv8c-51" value=":Routeur" style="shape=umlLifeline;perimeter=lifelinePerimeter;whiteSpace=wrap;container=0;dropTarget=0;collapsible=0;recursiveResize=0;outlineConnect=0;portConstraint=eastwest;newEdgeStyle={&quot;edgeStyle&quot;:&quot;elbowEdgeStyle&quot;,&quot;elbow&quot;:&quot;vertical&quot;,&quot;curved&quot;:0,&quot;rounded&quot;:0};hachureGap=4;fontFamily=Architects Daughter;html=1;labelBackgroundColor=none;labelBorderColor=none;sketch=1;curveFitting=1;jiggle=2;fontSource=https%3A%2F%2Ffonts.googleapis.com%2Fcss%3Ffamily%3DArchitects%2BDaughter;fillColor=#f5f5f5;strokeColor=#666666;fontColor=#333333;fontStyle=1" parent="1" vertex="1">
          <mxGeometry x="-100" y="560" width="100" height="300" as="geometry" />
        </mxCell>
        <mxCell id="ansgDNFfcg6hh3RPVv8c-52" value="" style="points=[];perimeter=orthogonalPerimeter;outlineConnect=0;targetShapes=umlLifeline;portConstraint=eastwest;newEdgeStyle={&quot;edgeStyle&quot;:&quot;elbowEdgeStyle&quot;,&quot;elbow&quot;:&quot;vertical&quot;,&quot;curved&quot;:0,&quot;rounded&quot;:0};hachureGap=4;fontFamily=Architects Daughter;html=1;labelBackgroundColor=none;labelBorderColor=none;sketch=1;curveFitting=1;jiggle=2;fontSource=https%3A%2F%2Ffonts.googleapis.com%2Fcss%3Ffamily%3DArchitects%2BDaughter;fontStyle=1" parent="ansgDNFfcg6hh3RPVv8c-51" vertex="1">
          <mxGeometry x="45" y="70" width="10" height="190" as="geometry" />
        </mxCell>
        <mxCell id="ansgDNFfcg6hh3RPVv8c-53" value="" style="points=[];perimeter=orthogonalPerimeter;outlineConnect=0;targetShapes=umlLifeline;portConstraint=eastwest;newEdgeStyle={&quot;edgeStyle&quot;:&quot;elbowEdgeStyle&quot;,&quot;elbow&quot;:&quot;vertical&quot;,&quot;curved&quot;:0,&quot;rounded&quot;:0};hachureGap=4;fontFamily=Architects Daughter;html=1;labelBackgroundColor=none;labelBorderColor=none;sketch=1;curveFitting=1;jiggle=2;fontSource=https%3A%2F%2Ffonts.googleapis.com%2Fcss%3Ffamily%3DArchitects%2BDaughter;fontStyle=1" parent="ansgDNFfcg6hh3RPVv8c-51" vertex="1">
          <mxGeometry x="50" y="140" width="10" height="80" as="geometry" />
        </mxCell>
        <mxCell id="ansgDNFfcg6hh3RPVv8c-54" style="edgeStyle=elbowEdgeStyle;rounded=0;sketch=1;hachureGap=4;jiggle=2;curveFitting=1;orthogonalLoop=1;jettySize=auto;html=1;elbow=vertical;curved=0;fontFamily=Architects Daughter;fontSource=https%3A%2F%2Ffonts.googleapis.com%2Fcss%3Ffamily%3DArchitects%2BDaughter;fontStyle=1" parent="ansgDNFfcg6hh3RPVv8c-51" edge="1">
          <mxGeometry relative="1" as="geometry">
            <mxPoint x="59.07142857142844" y="184.2814285714289" as="sourcePoint" />
            <mxPoint x="1035" y="184" as="targetPoint" />
            <Array as="points">
              <mxPoint x="620" y="184" />
            </Array>
          </mxGeometry>
        </mxCell>
        <mxCell id="qNE-hX8N9u7L_8a9YvEz-1" value="&lt;span style=&quot;font-family: &amp;quot;Architects Daughter&amp;quot;;&quot;&gt;CreateTicket()&lt;/span&gt;" style="edgeLabel;html=1;align=center;verticalAlign=middle;resizable=0;points=[];sketch=1;hachureGap=4;jiggle=2;curveFitting=1;fontFamily=Architects Daughter;fontSource=https%3A%2F%2Ffonts.googleapis.com%2Fcss%3Ffamily%3DArchitects%2BDaughter;fontStyle=1" vertex="1" connectable="0" parent="ansgDNFfcg6hh3RPVv8c-54">
          <mxGeometry x="-0.7797" y="-6" relative="1" as="geometry">
            <mxPoint x="-7" y="-10" as="offset" />
          </mxGeometry>
        </mxCell>
        <mxCell id="ansgDNFfcg6hh3RPVv8c-55" value="From index" style="verticalAlign=bottom;startArrow=oval;endArrow=block;startSize=8;edgeStyle=elbowEdgeStyle;elbow=vertical;curved=0;rounded=0;hachureGap=4;fontFamily=Architects Daughter;html=1;labelBackgroundColor=none;labelBorderColor=none;sketch=1;curveFitting=1;jiggle=2;fontSource=https%3A%2F%2Ffonts.googleapis.com%2Fcss%3Ffamily%3DArchitects%2BDaughter;exitX=0;exitY=0.41;exitDx=0;exitDy=0;exitPerimeter=0;fontStyle=1" parent="1" source="ansgDNFfcg6hh3RPVv8c-30" target="ansgDNFfcg6hh3RPVv8c-52" edge="1">
          <mxGeometry x="-0.0051" relative="1" as="geometry">
            <mxPoint x="-95" y="650" as="sourcePoint" />
            <mxPoint as="offset" />
          </mxGeometry>
        </mxCell>
        <mxCell id="ansgDNFfcg6hh3RPVv8c-56" value="" style="group;fontFamily=Architects Daughter;fontSource=https%3A%2F%2Ffonts.googleapis.com%2Fcss%3Ffamily%3DArchitects%2BDaughter;fontStyle=1" parent="1" vertex="1" connectable="0">
          <mxGeometry x="156" y="515" width="530" height="350" as="geometry" />
        </mxCell>
        <mxCell id="ansgDNFfcg6hh3RPVv8c-57" value=":TicketView" style="shape=umlLifeline;perimeter=lifelinePerimeter;whiteSpace=wrap;container=0;dropTarget=0;collapsible=0;recursiveResize=0;outlineConnect=0;portConstraint=eastwest;newEdgeStyle={&quot;edgeStyle&quot;:&quot;elbowEdgeStyle&quot;,&quot;elbow&quot;:&quot;vertical&quot;,&quot;curved&quot;:0,&quot;rounded&quot;:0};hachureGap=4;fontFamily=Architects Daughter;html=1;labelBackgroundColor=none;labelBorderColor=none;sketch=1;curveFitting=1;jiggle=2;fontSource=https%3A%2F%2Ffonts.googleapis.com%2Fcss%3Ffamily%3DArchitects%2BDaughter;fontStyle=1" parent="ansgDNFfcg6hh3RPVv8c-56" vertex="1">
          <mxGeometry x="30" y="40" width="100" height="300" as="geometry" />
        </mxCell>
        <mxCell id="ansgDNFfcg6hh3RPVv8c-58" value="" style="points=[];perimeter=orthogonalPerimeter;outlineConnect=0;targetShapes=umlLifeline;portConstraint=eastwest;newEdgeStyle={&quot;edgeStyle&quot;:&quot;elbowEdgeStyle&quot;,&quot;elbow&quot;:&quot;vertical&quot;,&quot;curved&quot;:0,&quot;rounded&quot;:0};hachureGap=4;fontFamily=Architects Daughter;html=1;labelBackgroundColor=none;labelBorderColor=none;sketch=1;curveFitting=1;jiggle=2;fontSource=https%3A%2F%2Ffonts.googleapis.com%2Fcss%3Ffamily%3DArchitects%2BDaughter;fontStyle=1" parent="ansgDNFfcg6hh3RPVv8c-57" vertex="1">
          <mxGeometry x="45" y="80" width="10" height="210" as="geometry" />
        </mxCell>
        <mxCell id="ansgDNFfcg6hh3RPVv8c-59" value="&lt;font data-font-src=&quot;https://fonts.googleapis.com/css?family=Architects+Daughter&quot; face=&quot;Architects Daughter&quot;&gt;:View&lt;/font&gt;" style="shape=umlLifeline;perimeter=lifelinePerimeter;whiteSpace=wrap;container=0;dropTarget=0;collapsible=0;recursiveResize=0;outlineConnect=0;portConstraint=eastwest;newEdgeStyle={&quot;edgeStyle&quot;:&quot;elbowEdgeStyle&quot;,&quot;elbow&quot;:&quot;vertical&quot;,&quot;curved&quot;:0,&quot;rounded&quot;:0};hachureGap=4;fontFamily=Architects Daughter;html=1;labelBackgroundColor=none;labelBorderColor=none;sketch=1;curveFitting=1;jiggle=2;fontSource=https%3A%2F%2Ffonts.googleapis.com%2Fcss%3Ffamily%3DArchitects%2BDaughter;fontStyle=1" parent="ansgDNFfcg6hh3RPVv8c-56" vertex="1">
          <mxGeometry x="210" y="40" width="100" height="300" as="geometry" />
        </mxCell>
        <mxCell id="ansgDNFfcg6hh3RPVv8c-60" value="" style="points=[];perimeter=orthogonalPerimeter;outlineConnect=0;targetShapes=umlLifeline;portConstraint=eastwest;newEdgeStyle={&quot;edgeStyle&quot;:&quot;elbowEdgeStyle&quot;,&quot;elbow&quot;:&quot;vertical&quot;,&quot;curved&quot;:0,&quot;rounded&quot;:0};hachureGap=4;fontFamily=Architects Daughter;html=1;labelBackgroundColor=none;labelBorderColor=none;sketch=1;curveFitting=1;jiggle=2;fontSource=https%3A%2F%2Ffonts.googleapis.com%2Fcss%3Ffamily%3DArchitects%2BDaughter;fontStyle=1" parent="ansgDNFfcg6hh3RPVv8c-59" vertex="1">
          <mxGeometry x="45" y="80" width="10" height="90" as="geometry" />
        </mxCell>
        <mxCell id="ansgDNFfcg6hh3RPVv8c-61" value=":indexView" style="shape=umlLifeline;perimeter=lifelinePerimeter;whiteSpace=wrap;container=0;dropTarget=0;collapsible=0;recursiveResize=0;outlineConnect=0;portConstraint=eastwest;newEdgeStyle={&quot;edgeStyle&quot;:&quot;elbowEdgeStyle&quot;,&quot;elbow&quot;:&quot;vertical&quot;,&quot;curved&quot;:0,&quot;rounded&quot;:0};hachureGap=4;fontFamily=Architects Daughter;html=1;labelBackgroundColor=none;labelBorderColor=none;sketch=1;curveFitting=1;jiggle=2;fontSource=https%3A%2F%2Ffonts.googleapis.com%2Fcss%3Ffamily%3DArchitects%2BDaughter;fontStyle=1" parent="ansgDNFfcg6hh3RPVv8c-56" vertex="1">
          <mxGeometry x="390" y="40" width="100" height="300" as="geometry" />
        </mxCell>
        <mxCell id="ansgDNFfcg6hh3RPVv8c-62" value="" style="points=[];perimeter=orthogonalPerimeter;outlineConnect=0;targetShapes=umlLifeline;portConstraint=eastwest;newEdgeStyle={&quot;edgeStyle&quot;:&quot;elbowEdgeStyle&quot;,&quot;elbow&quot;:&quot;vertical&quot;,&quot;curved&quot;:0,&quot;rounded&quot;:0};hachureGap=4;fontFamily=Architects Daughter;html=1;labelBackgroundColor=none;labelBorderColor=none;sketch=1;curveFitting=1;jiggle=2;fontSource=https%3A%2F%2Ffonts.googleapis.com%2Fcss%3Ffamily%3DArchitects%2BDaughter;fontStyle=1" parent="ansgDNFfcg6hh3RPVv8c-61" vertex="1">
          <mxGeometry x="45" y="80" width="10" height="60" as="geometry" />
        </mxCell>
        <mxCell id="ansgDNFfcg6hh3RPVv8c-63" value="Ticket View (Frontend)" style="swimlane;whiteSpace=wrap;html=1;sketch=1;hachureGap=4;jiggle=2;curveFitting=1;fontFamily=Architects Daughter;fontSource=https%3A%2F%2Ffonts.googleapis.com%2Fcss%3Ffamily%3DArchitects%2BDaughter;fillColor=#f8cecc;strokeColor=#b85450;fontStyle=1" parent="ansgDNFfcg6hh3RPVv8c-56" vertex="1">
          <mxGeometry width="530" height="350" as="geometry" />
        </mxCell>
        <mxCell id="ansgDNFfcg6hh3RPVv8c-64" style="edgeStyle=elbowEdgeStyle;rounded=0;sketch=1;hachureGap=4;jiggle=2;curveFitting=1;orthogonalLoop=1;jettySize=auto;html=1;elbow=vertical;curved=0;fontFamily=Architects Daughter;fontSource=https%3A%2F%2Ffonts.googleapis.com%2Fcss%3Ffamily%3DArchitects%2BDaughter;fontStyle=1" parent="ansgDNFfcg6hh3RPVv8c-63" edge="1">
          <mxGeometry relative="1" as="geometry">
            <mxPoint x="255" y="150" as="sourcePoint" />
            <mxPoint x="85" y="150" as="targetPoint" />
          </mxGeometry>
        </mxCell>
        <mxCell id="ansgDNFfcg6hh3RPVv8c-65" value="&lt;font face=&quot;Architects Daughter&quot; data-font-src=&quot;https://fonts.googleapis.com/css?family=Architects+Daughter&quot;&gt;Base&lt;/font&gt;" style="edgeLabel;html=1;align=center;verticalAlign=middle;resizable=0;points=[];sketch=1;hachureGap=4;jiggle=2;curveFitting=1;fontFamily=Architects Daughter;fontSource=https%3A%2F%2Ffonts.googleapis.com%2Fcss%3Ffamily%3DArchitects%2BDaughter;fontStyle=1" parent="ansgDNFfcg6hh3RPVv8c-64" vertex="1" connectable="0">
          <mxGeometry x="0.4341" y="-3" relative="1" as="geometry">
            <mxPoint x="31" y="3" as="offset" />
          </mxGeometry>
        </mxCell>
        <mxCell id="ansgDNFfcg6hh3RPVv8c-89" style="edgeStyle=elbowEdgeStyle;rounded=0;sketch=1;hachureGap=4;jiggle=2;curveFitting=1;orthogonalLoop=1;jettySize=auto;html=1;elbow=vertical;curved=0;fontFamily=Architects Daughter;fontSource=https%3A%2F%2Ffonts.googleapis.com%2Fcss%3Ffamily%3DArchitects%2BDaughter;fontStyle=1" parent="ansgDNFfcg6hh3RPVv8c-63" edge="1">
          <mxGeometry relative="1" as="geometry">
            <mxPoint x="769" y="304.998695652174" as="sourcePoint" />
            <mxPoint x="85" y="305.3909523809523" as="targetPoint" />
          </mxGeometry>
        </mxCell>
        <mxCell id="ansgDNFfcg6hh3RPVv8c-90" value="TypeDemande[]" style="edgeLabel;html=1;align=center;verticalAlign=middle;resizable=0;points=[];sketch=1;hachureGap=4;jiggle=2;curveFitting=1;fontFamily=Architects Daughter;fontSource=https%3A%2F%2Ffonts.googleapis.com%2Fcss%3Ffamily%3DArchitects%2BDaughter;fontStyle=1" parent="ansgDNFfcg6hh3RPVv8c-89" vertex="1" connectable="0">
          <mxGeometry x="-0.4689" y="-4" relative="1" as="geometry">
            <mxPoint x="-3" y="4" as="offset" />
          </mxGeometry>
        </mxCell>
        <mxCell id="ansgDNFfcg6hh3RPVv8c-92" value="TypePeriode[]" style="edgeLabel;html=1;align=center;verticalAlign=middle;resizable=0;points=[];sketch=1;hachureGap=4;jiggle=2;curveFitting=1;fontFamily=Architects Daughter;fontSource=https%3A%2F%2Ffonts.googleapis.com%2Fcss%3Ffamily%3DArchitects%2BDaughter;fontStyle=1" parent="ansgDNFfcg6hh3RPVv8c-89" vertex="1" connectable="0">
          <mxGeometry x="-0.6701" y="-2" relative="1" as="geometry">
            <mxPoint x="17" as="offset" />
          </mxGeometry>
        </mxCell>
        <mxCell id="ansgDNFfcg6hh3RPVv8c-66" style="edgeStyle=elbowEdgeStyle;rounded=0;sketch=1;hachureGap=4;jiggle=2;curveFitting=1;orthogonalLoop=1;jettySize=auto;html=1;elbow=vertical;curved=0;fontFamily=Architects Daughter;fontSource=https%3A%2F%2Ffonts.googleapis.com%2Fcss%3Ffamily%3DArchitects%2BDaughter;fontStyle=1" parent="ansgDNFfcg6hh3RPVv8c-56" edge="1">
          <mxGeometry relative="1" as="geometry">
            <mxPoint x="265" y="150.0028571428569" as="sourcePoint" />
            <mxPoint x="435" y="150.0028571428569" as="targetPoint" />
          </mxGeometry>
        </mxCell>
        <mxCell id="ansgDNFfcg6hh3RPVv8c-67" value="Base" style="edgeLabel;html=1;align=center;verticalAlign=middle;resizable=0;points=[];sketch=1;hachureGap=4;jiggle=2;curveFitting=1;fontFamily=Architects Daughter;fontSource=https%3A%2F%2Ffonts.googleapis.com%2Fcss%3Ffamily%3DArchitects%2BDaughter;fontStyle=1" parent="ansgDNFfcg6hh3RPVv8c-66" vertex="1" connectable="0">
          <mxGeometry x="0.0501" y="2" relative="1" as="geometry">
            <mxPoint x="-10" y="2" as="offset" />
          </mxGeometry>
        </mxCell>
        <mxCell id="ansgDNFfcg6hh3RPVv8c-68" value="" style="group;fontFamily=Architects Daughter;fontSource=https%3A%2F%2Ffonts.googleapis.com%2Fcss%3Ffamily%3DArchitects%2BDaughter;fontStyle=1" parent="1" vertex="1" connectable="0">
          <mxGeometry x="880" y="515" width="500" height="350" as="geometry" />
        </mxCell>
        <mxCell id="ansgDNFfcg6hh3RPVv8c-69" style="edgeStyle=elbowEdgeStyle;rounded=0;sketch=1;hachureGap=4;jiggle=2;curveFitting=1;orthogonalLoop=1;jettySize=auto;html=1;elbow=vertical;curved=0;fontFamily=Architects Daughter;fontSource=https%3A%2F%2Ffonts.googleapis.com%2Fcss%3Ffamily%3DArchitects%2BDaughter;fontStyle=1" parent="ansgDNFfcg6hh3RPVv8c-68" edge="1">
          <mxGeometry relative="1" as="geometry">
            <mxPoint x="239.5" y="150" as="sourcePoint" />
            <mxPoint x="65" y="150" as="targetPoint" />
          </mxGeometry>
        </mxCell>
        <mxCell id="ansgDNFfcg6hh3RPVv8c-70" value="Redirrection" style="edgeLabel;html=1;align=center;verticalAlign=middle;resizable=0;points=[];sketch=1;hachureGap=4;jiggle=2;curveFitting=1;fontFamily=Architects Daughter;fontSource=https%3A%2F%2Ffonts.googleapis.com%2Fcss%3Ffamily%3DArchitects%2BDaughter;fontStyle=1" parent="ansgDNFfcg6hh3RPVv8c-69" vertex="1" connectable="0">
          <mxGeometry x="0.0972" y="-7" relative="1" as="geometry">
            <mxPoint x="-4" y="2" as="offset" />
          </mxGeometry>
        </mxCell>
        <mxCell id="ansgDNFfcg6hh3RPVv8c-71" value="Redirrection" style="edgeStyle=elbowEdgeStyle;rounded=0;sketch=1;hachureGap=4;jiggle=2;curveFitting=1;orthogonalLoop=1;jettySize=auto;html=1;elbow=horizontal;curved=0;fontFamily=Architects Daughter;fontSource=https%3A%2F%2Ffonts.googleapis.com%2Fcss%3Ffamily%3DArchitects%2BDaughter;fontStyle=1" parent="ansgDNFfcg6hh3RPVv8c-68" edge="1">
          <mxGeometry relative="1" as="geometry">
            <mxPoint x="239.5" y="150" as="sourcePoint" />
            <mxPoint x="419.5" y="150" as="targetPoint" />
          </mxGeometry>
        </mxCell>
        <mxCell id="ansgDNFfcg6hh3RPVv8c-72" value="SetParams()" style="edgeStyle=elbowEdgeStyle;rounded=0;sketch=1;hachureGap=4;jiggle=2;curveFitting=1;orthogonalLoop=1;jettySize=auto;html=1;elbow=vertical;curved=0;fontFamily=Architects Daughter;fontSource=https%3A%2F%2Ffonts.googleapis.com%2Fcss%3Ffamily%3DArchitects%2BDaughter;fontStyle=1" parent="ansgDNFfcg6hh3RPVv8c-68" source="ansgDNFfcg6hh3RPVv8c-73" target="ansgDNFfcg6hh3RPVv8c-76" edge="1">
          <mxGeometry relative="1" as="geometry" />
        </mxCell>
        <mxCell id="ansgDNFfcg6hh3RPVv8c-73" value=":Controller" style="shape=umlLifeline;perimeter=lifelinePerimeter;whiteSpace=wrap;container=0;dropTarget=0;collapsible=0;recursiveResize=0;outlineConnect=0;portConstraint=eastwest;newEdgeStyle={&quot;edgeStyle&quot;:&quot;elbowEdgeStyle&quot;,&quot;elbow&quot;:&quot;vertical&quot;,&quot;curved&quot;:0,&quot;rounded&quot;:0};hachureGap=4;fontFamily=Architects Daughter;html=1;labelBackgroundColor=none;labelBorderColor=none;sketch=1;curveFitting=1;jiggle=2;fontSource=https%3A%2F%2Ffonts.googleapis.com%2Fcss%3Ffamily%3DArchitects%2BDaughter;fontStyle=1" parent="ansgDNFfcg6hh3RPVv8c-68" vertex="1">
          <mxGeometry x="190" y="40" width="100" height="300" as="geometry" />
        </mxCell>
        <mxCell id="ansgDNFfcg6hh3RPVv8c-74" value="" style="points=[];perimeter=orthogonalPerimeter;outlineConnect=0;targetShapes=umlLifeline;portConstraint=eastwest;newEdgeStyle={&quot;edgeStyle&quot;:&quot;elbowEdgeStyle&quot;,&quot;elbow&quot;:&quot;vertical&quot;,&quot;curved&quot;:0,&quot;rounded&quot;:0};hachureGap=4;fontFamily=Architects Daughter;html=1;labelBackgroundColor=none;labelBorderColor=none;sketch=1;curveFitting=1;jiggle=2;fontSource=https%3A%2F%2Ffonts.googleapis.com%2Fcss%3Ffamily%3DArchitects%2BDaughter;fontStyle=1" parent="ansgDNFfcg6hh3RPVv8c-73" vertex="1">
          <mxGeometry x="45" y="80" width="10" height="170" as="geometry" />
        </mxCell>
        <mxCell id="ansgDNFfcg6hh3RPVv8c-75" value=":IndexController" style="shape=umlLifeline;perimeter=lifelinePerimeter;whiteSpace=wrap;container=0;dropTarget=0;collapsible=0;recursiveResize=0;outlineConnect=0;portConstraint=eastwest;newEdgeStyle={&quot;edgeStyle&quot;:&quot;elbowEdgeStyle&quot;,&quot;elbow&quot;:&quot;vertical&quot;,&quot;curved&quot;:0,&quot;rounded&quot;:0};hachureGap=4;fontFamily=Architects Daughter;html=1;labelBackgroundColor=none;labelBorderColor=none;sketch=1;curveFitting=1;jiggle=2;fontSource=https%3A%2F%2Ffonts.googleapis.com%2Fcss%3Ffamily%3DArchitects%2BDaughter;fontStyle=1" parent="ansgDNFfcg6hh3RPVv8c-68" vertex="1">
          <mxGeometry x="370" y="40" width="100" height="300" as="geometry" />
        </mxCell>
        <mxCell id="ansgDNFfcg6hh3RPVv8c-76" value="" style="points=[];perimeter=orthogonalPerimeter;outlineConnect=0;targetShapes=umlLifeline;portConstraint=eastwest;newEdgeStyle={&quot;edgeStyle&quot;:&quot;elbowEdgeStyle&quot;,&quot;elbow&quot;:&quot;vertical&quot;,&quot;curved&quot;:0,&quot;rounded&quot;:0};hachureGap=4;fontFamily=Architects Daughter;html=1;labelBackgroundColor=none;labelBorderColor=none;sketch=1;curveFitting=1;jiggle=2;fontSource=https%3A%2F%2Ffonts.googleapis.com%2Fcss%3Ffamily%3DArchitects%2BDaughter;fontStyle=1" parent="ansgDNFfcg6hh3RPVv8c-75" vertex="1">
          <mxGeometry x="45" y="80" width="10" height="170" as="geometry" />
        </mxCell>
        <mxCell id="ansgDNFfcg6hh3RPVv8c-77" value="&lt;font face=&quot;Architects Daughter&quot; data-font-src=&quot;https://fonts.googleapis.com/css?family=Architects+Daughter&quot;&gt;Ticket Controller (Backend)&lt;/font&gt;" style="swimlane;whiteSpace=wrap;html=1;sketch=1;hachureGap=4;jiggle=2;curveFitting=1;fontFamily=Architects Daughter;fontSource=https%3A%2F%2Ffonts.googleapis.com%2Fcss%3Ffamily%3DArchitects%2BDaughter;fillColor=#ffcd28;strokeColor=#d79b00;gradientColor=none;fontStyle=1" parent="ansgDNFfcg6hh3RPVv8c-68" vertex="1">
          <mxGeometry width="500" height="350" as="geometry" />
        </mxCell>
        <mxCell id="ansgDNFfcg6hh3RPVv8c-78" style="edgeStyle=elbowEdgeStyle;rounded=0;sketch=1;hachureGap=4;jiggle=2;curveFitting=1;orthogonalLoop=1;jettySize=auto;html=1;elbow=vertical;curved=0;fontFamily=Architects Daughter;fontSource=https%3A%2F%2Ffonts.googleapis.com%2Fcss%3Ffamily%3DArchitects%2BDaughter;fontStyle=1" parent="ansgDNFfcg6hh3RPVv8c-77" edge="1">
          <mxGeometry relative="1" as="geometry">
            <mxPoint x="-459" y="204.28714285714312" as="sourcePoint" />
            <mxPoint x="235" y="204.28714285714312" as="targetPoint" />
          </mxGeometry>
        </mxCell>
        <mxCell id="ansgDNFfcg6hh3RPVv8c-79" value="PathRoute" style="edgeLabel;html=1;align=center;verticalAlign=middle;resizable=0;points=[];sketch=1;hachureGap=4;jiggle=2;curveFitting=1;fontFamily=Architects Daughter;fontSource=https%3A%2F%2Ffonts.googleapis.com%2Fcss%3Ffamily%3DArchitects%2BDaughter;fontStyle=1" parent="ansgDNFfcg6hh3RPVv8c-78" vertex="1" connectable="0">
          <mxGeometry x="-0.7108" y="3" relative="1" as="geometry">
            <mxPoint y="4" as="offset" />
          </mxGeometry>
        </mxCell>
        <mxCell id="ansgDNFfcg6hh3RPVv8c-91" value="" style="html=1;points=[[0,0,0,0,5],[0,1,0,0,-5],[1,0,0,0,5],[1,1,0,0,-5]];perimeter=orthogonalPerimeter;outlineConnect=0;targetShapes=umlLifeline;portConstraint=eastwest;newEdgeStyle={&quot;curved&quot;:0,&quot;rounded&quot;:0};sketch=1;hachureGap=4;jiggle=2;curveFitting=1;fontFamily=Architects Daughter;fontSource=https%3A%2F%2Ffonts.googleapis.com%2Fcss%3Ffamily%3DArchitects%2BDaughter;fontStyle=1" parent="ansgDNFfcg6hh3RPVv8c-77" vertex="1">
          <mxGeometry x="45" y="250" width="10" height="80" as="geometry" />
        </mxCell>
        <mxCell id="ansgDNFfcg6hh3RPVv8c-80" value=":TicketController" style="shape=umlLifeline;perimeter=lifelinePerimeter;whiteSpace=wrap;container=0;dropTarget=0;collapsible=0;recursiveResize=0;outlineConnect=0;portConstraint=eastwest;newEdgeStyle={&quot;edgeStyle&quot;:&quot;elbowEdgeStyle&quot;,&quot;elbow&quot;:&quot;vertical&quot;,&quot;curved&quot;:0,&quot;rounded&quot;:0};hachureGap=4;fontFamily=Architects Daughter;html=1;labelBackgroundColor=none;labelBorderColor=none;sketch=1;curveFitting=1;jiggle=2;fontSource=https%3A%2F%2Ffonts.googleapis.com%2Fcss%3Ffamily%3DArchitects%2BDaughter;fontStyle=1" parent="ansgDNFfcg6hh3RPVv8c-68" vertex="1">
          <mxGeometry x="10" y="40" width="100" height="300" as="geometry" />
        </mxCell>
        <mxCell id="ansgDNFfcg6hh3RPVv8c-81" value="" style="points=[];perimeter=orthogonalPerimeter;outlineConnect=0;targetShapes=umlLifeline;portConstraint=eastwest;newEdgeStyle={&quot;edgeStyle&quot;:&quot;elbowEdgeStyle&quot;,&quot;elbow&quot;:&quot;vertical&quot;,&quot;curved&quot;:0,&quot;rounded&quot;:0};hachureGap=4;fontFamily=Architects Daughter;html=1;labelBackgroundColor=none;labelBorderColor=none;sketch=1;curveFitting=1;jiggle=2;fontSource=https%3A%2F%2Ffonts.googleapis.com%2Fcss%3Ffamily%3DArchitects%2BDaughter;fontStyle=1" parent="ansgDNFfcg6hh3RPVv8c-80" vertex="1">
          <mxGeometry x="45" y="80" width="10" height="210" as="geometry" />
        </mxCell>
        <mxCell id="ansgDNFfcg6hh3RPVv8c-82" value="" style="shape=flexArrow;endArrow=classic;startArrow=classic;html=1;rounded=0;sketch=1;hachureGap=4;jiggle=2;curveFitting=1;fontFamily=Architects Daughter;fontSource=https%3A%2F%2Ffonts.googleapis.com%2Fcss%3Ffamily%3DArchitects%2BDaughter;fontStyle=1" parent="1" edge="1">
          <mxGeometry width="100" height="100" relative="1" as="geometry">
            <mxPoint x="1400" y="690" as="sourcePoint" />
            <mxPoint x="1610" y="690" as="targetPoint" />
          </mxGeometry>
        </mxCell>
        <mxCell id="ansgDNFfcg6hh3RPVv8c-83" value="" style="shape=flexArrow;endArrow=classic;html=1;rounded=0;sketch=1;hachureGap=4;jiggle=2;curveFitting=1;fontFamily=Architects Daughter;fontSource=https%3A%2F%2Ffonts.googleapis.com%2Fcss%3Ffamily%3DArchitects%2BDaughter;fontStyle=1" parent="1" edge="1">
          <mxGeometry width="50" height="50" relative="1" as="geometry">
            <mxPoint x="860" y="690" as="sourcePoint" />
            <mxPoint x="700" y="690" as="targetPoint" />
          </mxGeometry>
        </mxCell>
        <mxCell id="ansgDNFfcg6hh3RPVv8c-87" value="" style="shape=flexArrow;endArrow=classic;html=1;rounded=0;sketch=1;hachureGap=4;jiggle=2;curveFitting=1;fontFamily=Architects Daughter;fontSource=https%3A%2F%2Ffonts.googleapis.com%2Fcss%3Ffamily%3DArchitects%2BDaughter;fontStyle=1" parent="1" edge="1">
          <mxGeometry width="50" height="50" relative="1" as="geometry">
            <mxPoint x="140" y="689.29" as="sourcePoint" />
            <mxPoint x="-20" y="689.29" as="targetPoint" />
          </mxGeometry>
        </mxCell>
        <mxCell id="ansgDNFfcg6hh3RPVv8c-88" value="&lt;h1&gt;CRED&lt;/h1&gt;&lt;p&gt;La Classe &lt;u style=&quot;&quot;&gt;Ticket&lt;/u&gt;&amp;nbsp;prévoit la création ainsi que édition et la lecture, suppression, pour le système d&#39;hirarchisation la méthode de suppression sera disponible qu&#39;à la personne ayant crée le ticket&amp;nbsp;&amp;nbsp;&lt;/p&gt;" style="text;html=1;spacing=5;spacingTop=-20;whiteSpace=wrap;overflow=hidden;rounded=0;fontFamily=Architects Daughter;fontSource=https%3A%2F%2Ffonts.googleapis.com%2Fcss%3Ffamily%3DArchitects%2BDaughter;fontStyle=1" parent="1" vertex="1">
          <mxGeometry x="2310" y="490" width="190" height="160" as="geometry" />
        </mxCell>
        <mxCell id="qNE-hX8N9u7L_8a9YvEz-3" style="edgeStyle=elbowEdgeStyle;rounded=0;sketch=1;hachureGap=4;jiggle=2;curveFitting=1;orthogonalLoop=1;jettySize=auto;html=1;elbow=vertical;curved=0;fontFamily=Architects Daughter;fontSource=https%3A%2F%2Ffonts.googleapis.com%2Fcss%3Ffamily%3DArchitects%2BDaughter;fontStyle=1" edge="1" parent="1">
          <mxGeometry relative="1" as="geometry">
            <mxPoint x="939.5000000000005" y="840.00347826087" as="sourcePoint" />
            <mxPoint x="241" y="840.00347826087" as="targetPoint" />
          </mxGeometry>
        </mxCell>
        <mxCell id="qNE-hX8N9u7L_8a9YvEz-4" value="DownloadFile()" style="edgeLabel;html=1;align=center;verticalAlign=middle;resizable=0;points=[];sketch=1;hachureGap=4;jiggle=2;curveFitting=1;fontFamily=Architects Daughter;fontSource=https%3A%2F%2Ffonts.googleapis.com%2Fcss%3Ffamily%3DArchitects%2BDaughter;fontStyle=1" vertex="1" connectable="0" parent="qNE-hX8N9u7L_8a9YvEz-3">
          <mxGeometry x="-0.5449" y="1" relative="1" as="geometry">
            <mxPoint as="offset" />
          </mxGeometry>
        </mxCell>
      </root>
    </mxGraphModel>
  </diagram>
  <diagram id="JlDPQBvfOoWTeh7DIq1L" name="Diagramme de Classe">
    <mxGraphModel dx="2260" dy="593" grid="1" gridSize="10" guides="1" tooltips="1" connect="1" arrows="1" fold="1" page="1" pageScale="1" pageWidth="827" pageHeight="1169" math="0" shadow="0">
      <root>
        <mxCell id="0" />
        <mxCell id="1" parent="0" />
        <mxCell id="JF6QZFTYEvge2rTyZB---1" value="&lt;p style=&quot;margin: 0px ; margin-top: 4px ; margin-left: 10px ; text-align: left&quot;&gt;&lt;b&gt;Diagramme des Classe&lt;/b&gt;&lt;/p&gt;" style="html=1;strokeWidth=1;shape=mxgraph.sysml.package;html=1;overflow=fill;whiteSpace=wrap;fillColor=none;gradientColor=none;fontSize=12;align=center;labelX=327.64;sketch=1;hachureGap=4;jiggle=2;curveFitting=1;" vertex="1" parent="1">
          <mxGeometry x="-600" y="675" width="1937" height="1155" as="geometry" />
        </mxCell>
        <mxCell id="JF6QZFTYEvge2rTyZB---2" value="HSUVSpecification" style="shape=folder;tabWidth=80;tabHeight=20;tabPosition=left;strokeWidth=1;html=1;whiteSpace=wrap;align=center;fontSize=12;fontStyle=1;sketch=1;hachureGap=4;jiggle=2;curveFitting=1;" vertex="1" parent="1">
          <mxGeometry x="337" y="735" width="160" height="90" as="geometry" />
        </mxCell>
        <mxCell id="JF6QZFTYEvge2rTyZB---3" value="&lt;b&gt;RefinedBy&lt;/b&gt;&lt;div&gt;&amp;lt;&amp;lt;&amp;gt;useCase&amp;gt; HSUVUseCases : Accelerate&lt;/div&gt;" style="shape=note;size=15;align=left;spacingLeft=10;html=1;whiteSpace=wrap;strokeColor=#000000;strokeWidth=1;fillColor=#ffffff;fontSize=12;sketch=1;hachureGap=4;jiggle=2;curveFitting=1;" vertex="1" parent="1">
          <mxGeometry x="767" y="745" width="300" height="60" as="geometry" />
        </mxCell>
        <mxCell id="JF6QZFTYEvge2rTyZB---4" style="edgeStyle=orthogonalEdgeStyle;rounded=0;html=1;jettySize=auto;orthogonalLoop=1;endArrow=circlePlus;endFill=0;sketch=1;hachureGap=4;jiggle=2;curveFitting=1;" edge="1" parent="1" source="JF6QZFTYEvge2rTyZB---5" target="JF6QZFTYEvge2rTyZB---2">
          <mxGeometry relative="1" as="geometry">
            <Array as="points">
              <mxPoint x="377" y="865" />
              <mxPoint x="417" y="865" />
            </Array>
          </mxGeometry>
        </mxCell>
        <mxCell id="JF6QZFTYEvge2rTyZB---5" value="&lt;p&gt;&amp;lt;&amp;lt;requirement&amp;gt;&amp;gt;&lt;/p&gt;&lt;p&gt;Eco-Friendliness&lt;/p&gt;" style="shape=rect;html=1;overflow=fill;whiteSpace=wrap;align=center;fontStyle=1;sketch=1;hachureGap=4;jiggle=2;curveFitting=1;" vertex="1" parent="1">
          <mxGeometry x="297" y="915" width="160" height="80" as="geometry" />
        </mxCell>
        <mxCell id="JF6QZFTYEvge2rTyZB---6" style="edgeStyle=orthogonalEdgeStyle;rounded=0;html=1;endArrow=circlePlus;endFill=0;jettySize=auto;orthogonalLoop=1;sketch=1;hachureGap=4;jiggle=2;curveFitting=1;" edge="1" parent="1" source="JF6QZFTYEvge2rTyZB---7" target="JF6QZFTYEvge2rTyZB---2">
          <mxGeometry relative="1" as="geometry">
            <Array as="points">
              <mxPoint x="617" y="865" />
              <mxPoint x="417" y="865" />
            </Array>
          </mxGeometry>
        </mxCell>
        <mxCell id="JF6QZFTYEvge2rTyZB---7" value="&lt;p&gt;&amp;lt;&amp;lt;requirement&amp;gt;&amp;gt;&lt;/p&gt;&lt;p&gt;Performance&lt;/p&gt;" style="shape=rect;html=1;overflow=fill;whiteSpace=wrap;align=center;fontStyle=1;sketch=1;hachureGap=4;jiggle=2;curveFitting=1;" vertex="1" parent="1">
          <mxGeometry x="537" y="915" width="160" height="70" as="geometry" />
        </mxCell>
        <mxCell id="JF6QZFTYEvge2rTyZB---8" style="edgeStyle=none;rounded=0;html=1;dashed=1;endArrow=none;endFill=0;jettySize=auto;orthogonalLoop=1;sketch=1;hachureGap=4;jiggle=2;curveFitting=1;" edge="1" parent="1" source="JF6QZFTYEvge2rTyZB---9" target="JF6QZFTYEvge2rTyZB---16">
          <mxGeometry relative="1" as="geometry" />
        </mxCell>
        <mxCell id="JF6QZFTYEvge2rTyZB---9" value="&lt;p&gt;&amp;lt;&amp;lt;requirement&amp;gt;&amp;gt;&lt;/p&gt;&lt;p&gt;Power&lt;/p&gt;" style="shape=rect;html=1;overflow=fill;whiteSpace=wrap;align=center;fontStyle=1;sketch=1;hachureGap=4;jiggle=2;curveFitting=1;" vertex="1" parent="1">
          <mxGeometry x="1007" y="915" width="160" height="70" as="geometry" />
        </mxCell>
        <mxCell id="JF6QZFTYEvge2rTyZB---10" style="edgeStyle=orthogonalEdgeStyle;rounded=0;html=1;endArrow=circlePlus;endFill=0;jettySize=auto;orthogonalLoop=1;entryX=0.25;entryY=1;sketch=1;hachureGap=4;jiggle=2;curveFitting=1;" edge="1" parent="1" source="JF6QZFTYEvge2rTyZB---11" target="JF6QZFTYEvge2rTyZB---7">
          <mxGeometry relative="1" as="geometry">
            <Array as="points">
              <mxPoint x="527" y="1015" />
              <mxPoint x="577" y="1015" />
            </Array>
          </mxGeometry>
        </mxCell>
        <mxCell id="JF6QZFTYEvge2rTyZB---11" value="&lt;p&gt;&amp;lt;&amp;lt;requirement&amp;gt;&amp;gt;&lt;/p&gt;&lt;p&gt;Braking&lt;/p&gt;" style="shape=rect;html=1;overflow=fill;whiteSpace=wrap;align=center;fontStyle=1;sketch=1;hachureGap=4;jiggle=2;curveFitting=1;" vertex="1" parent="1">
          <mxGeometry x="447" y="1035" width="160" height="70" as="geometry" />
        </mxCell>
        <mxCell id="JF6QZFTYEvge2rTyZB---12" style="edgeStyle=orthogonalEdgeStyle;rounded=0;html=1;endArrow=circlePlus;endFill=0;jettySize=auto;orthogonalLoop=1;entryX=0.5;entryY=1;sketch=1;hachureGap=4;jiggle=2;curveFitting=1;" edge="1" parent="1" source="JF6QZFTYEvge2rTyZB---13" target="JF6QZFTYEvge2rTyZB---7">
          <mxGeometry relative="1" as="geometry">
            <Array as="points">
              <mxPoint x="717" y="1015" />
              <mxPoint x="617" y="1015" />
            </Array>
          </mxGeometry>
        </mxCell>
        <mxCell id="JF6QZFTYEvge2rTyZB---13" value="&lt;p&gt;&amp;lt;&amp;lt;requirement&amp;gt;&amp;gt;&lt;/p&gt;&lt;p&gt;FuelEconomy&lt;/p&gt;" style="shape=rect;html=1;overflow=fill;whiteSpace=wrap;align=center;fontStyle=1;sketch=1;hachureGap=4;jiggle=2;curveFitting=1;" vertex="1" parent="1">
          <mxGeometry x="637" y="1035" width="160" height="70" as="geometry" />
        </mxCell>
        <mxCell id="JF6QZFTYEvge2rTyZB---14" style="edgeStyle=orthogonalEdgeStyle;rounded=0;html=1;endArrow=circlePlus;endFill=0;jettySize=auto;orthogonalLoop=1;entryX=0.75;entryY=1;sketch=1;hachureGap=4;jiggle=2;curveFitting=1;" edge="1" parent="1" source="JF6QZFTYEvge2rTyZB---16" target="JF6QZFTYEvge2rTyZB---7">
          <mxGeometry relative="1" as="geometry">
            <Array as="points">
              <mxPoint x="917" y="1005" />
              <mxPoint x="657" y="1005" />
            </Array>
          </mxGeometry>
        </mxCell>
        <mxCell id="JF6QZFTYEvge2rTyZB---15" style="edgeStyle=none;rounded=0;html=1;dashed=1;endArrow=none;endFill=0;jettySize=auto;orthogonalLoop=1;sketch=1;hachureGap=4;jiggle=2;curveFitting=1;" edge="1" parent="1" source="JF6QZFTYEvge2rTyZB---16" target="JF6QZFTYEvge2rTyZB---3">
          <mxGeometry relative="1" as="geometry" />
        </mxCell>
        <mxCell id="JF6QZFTYEvge2rTyZB---16" value="&lt;p&gt;&amp;lt;&amp;lt;requirement&amp;gt;&amp;gt;&lt;/p&gt;&lt;p&gt;Acceleration&lt;/p&gt;" style="shape=rect;html=1;overflow=fill;whiteSpace=wrap;align=center;fontStyle=1;sketch=1;hachureGap=4;jiggle=2;curveFitting=1;" vertex="1" parent="1">
          <mxGeometry x="837" y="1035" width="160" height="70" as="geometry" />
        </mxCell>
        <mxCell id="JF6QZFTYEvge2rTyZB---17" style="edgeStyle=orthogonalEdgeStyle;rounded=0;html=1;endArrow=circlePlus;endFill=0;jettySize=auto;orthogonalLoop=1;sketch=1;hachureGap=4;jiggle=2;curveFitting=1;" edge="1" parent="1" source="JF6QZFTYEvge2rTyZB---18" target="JF6QZFTYEvge2rTyZB---5">
          <mxGeometry relative="1" as="geometry">
            <Array as="points">
              <mxPoint x="377" y="1135" />
              <mxPoint x="377" y="1135" />
            </Array>
          </mxGeometry>
        </mxCell>
        <mxCell id="JF6QZFTYEvge2rTyZB---18" value="&lt;p style=&quot;margin: 0px ; margin-top: 4px ; text-align: center&quot;&gt;&amp;lt;&amp;lt;requirement&amp;gt;&amp;gt;&lt;br&gt;&lt;b&gt;Emissions&lt;/b&gt;&lt;/p&gt;&lt;hr&gt;&lt;p style=&quot;margin: 0px ; margin-left: 8px ; text-align: left&quot;&gt;Id = &quot;R1.1.2&quot;&lt;/p&gt;&lt;p style=&quot;margin: 0px ; margin-left: 8px ; text-align: left&quot;&gt;text=&quot;The vehicle shall meet UltraLow Emissions Vehicle standards.&quot;&lt;/p&gt;" style="shape=rect;html=1;overflow=fill;whiteSpace=wrap;sketch=1;hachureGap=4;jiggle=2;curveFitting=1;" vertex="1" parent="1">
          <mxGeometry x="327" y="1165" width="290" height="120" as="geometry" />
        </mxCell>
        <mxCell id="JF6QZFTYEvge2rTyZB---19" style="rounded=0;html=1;endArrow=none;endFill=0;jettySize=auto;orthogonalLoop=1;dashed=1;sketch=1;hachureGap=4;jiggle=2;curveFitting=1;" edge="1" parent="1" source="JF6QZFTYEvge2rTyZB---20" target="JF6QZFTYEvge2rTyZB---16">
          <mxGeometry relative="1" as="geometry" />
        </mxCell>
        <mxCell id="JF6QZFTYEvge2rTyZB---20" value="&lt;b&gt;VerifiedBy&lt;/b&gt;&lt;div&gt;&amp;lt;&amp;lt;testCase&amp;gt;&amp;gt; MaxAcceleration&lt;/div&gt;" style="shape=note;size=15;align=left;spacingLeft=10;html=1;whiteSpace=wrap;strokeWidth=1;fontSize=12;sketch=1;hachureGap=4;jiggle=2;curveFitting=1;" vertex="1" parent="1">
          <mxGeometry x="732" y="1205" width="210" height="60" as="geometry" />
        </mxCell>
        <mxCell id="JF6QZFTYEvge2rTyZB---21" style="edgeStyle=none;rounded=0;html=1;dashed=1;endArrow=none;endFill=0;jettySize=auto;orthogonalLoop=1;sketch=1;hachureGap=4;jiggle=2;curveFitting=1;" edge="1" parent="1" source="JF6QZFTYEvge2rTyZB---22" target="JF6QZFTYEvge2rTyZB---9">
          <mxGeometry relative="1" as="geometry" />
        </mxCell>
        <mxCell id="JF6QZFTYEvge2rTyZB---22" value="&lt;b&gt;SatisfiedBy&lt;/b&gt;&lt;div&gt;&amp;lt;&amp;lt;block&amp;gt;&amp;gt; PowerSubsystem&lt;/div&gt;" style="shape=note;size=15;align=left;spacingLeft=10;html=1;whiteSpace=wrap;strokeWidth=1;fontSize=12;sketch=1;hachureGap=4;jiggle=2;curveFitting=1;" vertex="1" parent="1">
          <mxGeometry x="982" y="1205" width="210" height="60" as="geometry" />
        </mxCell>
        <mxCell id="JF6QZFTYEvge2rTyZB---23" value="Title" style="text;strokeColor=none;fillColor=none;html=1;fontSize=24;fontStyle=1;verticalAlign=middle;align=center;" vertex="1" parent="1">
          <mxGeometry x="20" y="420" width="1510" height="40" as="geometry" />
        </mxCell>
      </root>
    </mxGraphModel>
  </diagram>
  <diagram id="g9CGyrWZUK-oXN6j3Nja" name="Mockup">
    <mxGraphModel dx="1167" dy="593" grid="1" gridSize="10" guides="1" tooltips="1" connect="1" arrows="1" fold="1" page="1" pageScale="1" pageWidth="827" pageHeight="1169" math="0" shadow="0">
      <root>
        <mxCell id="0" />
        <mxCell id="1" parent="0" />
        <mxCell id="d6mL9r7aTs5oHf-mW6mQ-1" value="" style="html=1;shadow=0;dashed=0;shape=mxgraph.bootstrap.rect;fillColor=#222222;strokeColor=none;whiteSpace=wrap;rounded=0;fontSize=12;fontColor=#000000;align=center;hachureGap=4;fontFamily=Architects Daughter;fontSource=https%3A%2F%2Ffonts.googleapis.com%2Fcss%3Ffamily%3DArchitects%2BDaughter;textShadow=0;" parent="1" vertex="1">
          <mxGeometry x="20" y="20" width="1150" height="40" as="geometry" />
        </mxCell>
        <mxCell id="d6mL9r7aTs5oHf-mW6mQ-2" value="Company" style="html=1;shadow=0;dashed=0;fillColor=none;strokeColor=none;shape=mxgraph.bootstrap.rect;fontColor=#999999;fontSize=14;whiteSpace=wrap;hachureGap=4;fontFamily=Architects Daughter;fontSource=https%3A%2F%2Ffonts.googleapis.com%2Fcss%3Ffamily%3DArchitects%2BDaughter;textShadow=0;" parent="d6mL9r7aTs5oHf-mW6mQ-1" vertex="1">
          <mxGeometry width="115" height="40" as="geometry" />
        </mxCell>
        <mxCell id="d6mL9r7aTs5oHf-mW6mQ-3" value="People" style="html=1;shadow=0;dashed=0;shape=mxgraph.bootstrap.rect;fillColor=#000000;strokeColor=none;fontColor=#ffffff;spacingRight=30;whiteSpace=wrap;hachureGap=4;fontFamily=Architects Daughter;fontSource=https%3A%2F%2Ffonts.googleapis.com%2Fcss%3Ffamily%3DArchitects%2BDaughter;textShadow=0;" parent="d6mL9r7aTs5oHf-mW6mQ-1" vertex="1">
          <mxGeometry x="115" width="129.375" height="40" as="geometry" />
        </mxCell>
        <mxCell id="d6mL9r7aTs5oHf-mW6mQ-4" value="84" style="html=1;shadow=0;dashed=0;shape=mxgraph.bootstrap.rrect;rSize=8;fillColor=#ff0000;strokeColor=none;fontColor=#ffffff;whiteSpace=wrap;hachureGap=4;fontFamily=Architects Daughter;fontSource=https%3A%2F%2Ffonts.googleapis.com%2Fcss%3Ffamily%3DArchitects%2BDaughter;textShadow=0;" parent="d6mL9r7aTs5oHf-mW6mQ-3" vertex="1">
          <mxGeometry x="1" y="0.5" width="25" height="16" relative="1" as="geometry">
            <mxPoint x="-30" y="-8" as="offset" />
          </mxGeometry>
        </mxCell>
        <mxCell id="d6mL9r7aTs5oHf-mW6mQ-5" value="Violations" style="html=1;shadow=0;dashed=0;fillColor=none;strokeColor=none;shape=mxgraph.bootstrap.rect;fontColor=#999999;spacingRight=30;whiteSpace=wrap;hachureGap=4;fontFamily=Architects Daughter;fontSource=https%3A%2F%2Ffonts.googleapis.com%2Fcss%3Ffamily%3DArchitects%2BDaughter;textShadow=0;" parent="d6mL9r7aTs5oHf-mW6mQ-1" vertex="1">
          <mxGeometry x="244.375" width="158.125" height="40" as="geometry" />
        </mxCell>
        <mxCell id="d6mL9r7aTs5oHf-mW6mQ-6" value="42" style="html=1;shadow=0;dashed=0;shape=mxgraph.bootstrap.rrect;rSize=8;fillColor=#ff0000;strokeColor=none;fontColor=#ffffff;whiteSpace=wrap;hachureGap=4;fontFamily=Architects Daughter;fontSource=https%3A%2F%2Ffonts.googleapis.com%2Fcss%3Ffamily%3DArchitects%2BDaughter;textShadow=0;" parent="d6mL9r7aTs5oHf-mW6mQ-5" vertex="1">
          <mxGeometry x="1" y="0.5" width="25" height="16" relative="1" as="geometry">
            <mxPoint x="-30" y="-8" as="offset" />
          </mxGeometry>
        </mxCell>
        <mxCell id="d6mL9r7aTs5oHf-mW6mQ-7" value="Statistics" style="html=1;shadow=0;dashed=0;fillColor=none;strokeColor=none;shape=mxgraph.bootstrap.rect;fontColor=#999999;whiteSpace=wrap;hachureGap=4;fontFamily=Architects Daughter;fontSource=https%3A%2F%2Ffonts.googleapis.com%2Fcss%3Ffamily%3DArchitects%2BDaughter;textShadow=0;" parent="d6mL9r7aTs5oHf-mW6mQ-1" vertex="1">
          <mxGeometry x="402.5" width="115" height="40" as="geometry" />
        </mxCell>
        <mxCell id="d6mL9r7aTs5oHf-mW6mQ-8" value="Settings" style="html=1;shadow=0;dashed=0;fillColor=none;strokeColor=none;shape=mxgraph.bootstrap.rect;fontColor=#999999;whiteSpace=wrap;hachureGap=4;fontFamily=Architects Daughter;fontSource=https%3A%2F%2Ffonts.googleapis.com%2Fcss%3Ffamily%3DArchitects%2BDaughter;textShadow=0;" parent="d6mL9r7aTs5oHf-mW6mQ-1" vertex="1">
          <mxGeometry x="517.5" width="100.625" height="40" as="geometry" />
        </mxCell>
        <mxCell id="d6mL9r7aTs5oHf-mW6mQ-9" value="Profile" style="html=1;shadow=0;dashed=0;fillColor=none;strokeColor=none;shape=mxgraph.bootstrap.rect;fontColor=#999999;whiteSpace=wrap;hachureGap=4;fontFamily=Architects Daughter;fontSource=https%3A%2F%2Ffonts.googleapis.com%2Fcss%3Ffamily%3DArchitects%2BDaughter;textShadow=0;" parent="d6mL9r7aTs5oHf-mW6mQ-1" vertex="1">
          <mxGeometry x="948.75" width="100.625" height="40" as="geometry" />
        </mxCell>
        <mxCell id="d6mL9r7aTs5oHf-mW6mQ-10" value="Log Out" style="html=1;shadow=0;dashed=0;fillColor=none;strokeColor=none;shape=mxgraph.bootstrap.rect;fontColor=#999999;whiteSpace=wrap;hachureGap=4;fontFamily=Architects Daughter;fontSource=https%3A%2F%2Ffonts.googleapis.com%2Fcss%3Ffamily%3DArchitects%2BDaughter;textShadow=0;" parent="d6mL9r7aTs5oHf-mW6mQ-1" vertex="1">
          <mxGeometry x="1049.375" width="100.625" height="40" as="geometry" />
        </mxCell>
        <mxCell id="d6mL9r7aTs5oHf-mW6mQ-11" value="" style="html=1;shadow=0;dashed=0;shape=mxgraph.bootstrap.rrect;rSize=5;strokeColor=#dddddd;rounded=0;fontSize=12;align=center;hachureGap=4;fontFamily=Architects Daughter;fontSource=https%3A%2F%2Ffonts.googleapis.com%2Fcss%3Ffamily%3DArchitects%2BDaughter;textShadow=0;" parent="1" vertex="1">
          <mxGeometry x="840" y="100" width="330" height="400" as="geometry" />
        </mxCell>
        <mxCell id="d6mL9r7aTs5oHf-mW6mQ-12" value="320x200" style="shape=rect;fontSize=24;fillColor=#f0f0f0;strokeColor=none;fontColor=#999999;whiteSpace=wrap;hachureGap=4;fontFamily=Architects Daughter;fontSource=https%3A%2F%2Ffonts.googleapis.com%2Fcss%3Ffamily%3DArchitects%2BDaughter;shadow=0;textShadow=0;" parent="d6mL9r7aTs5oHf-mW6mQ-11" vertex="1">
          <mxGeometry x="5" y="5" width="320" height="200" as="geometry" />
        </mxCell>
        <mxCell id="d6mL9r7aTs5oHf-mW6mQ-13" value="Thumbnail label" style="html=1;shadow=0;dashed=0;shape=mxgraph.bootstrap.anchor;fontSize=26;align=left;whiteSpace=wrap;hachureGap=4;fontFamily=Architects Daughter;fontSource=https%3A%2F%2Ffonts.googleapis.com%2Fcss%3Ffamily%3DArchitects%2BDaughter;textShadow=0;" parent="d6mL9r7aTs5oHf-mW6mQ-11" vertex="1">
          <mxGeometry x="15" y="220" width="300" height="40" as="geometry" />
        </mxCell>
        <mxCell id="d6mL9r7aTs5oHf-mW6mQ-14" value="Cras justo odio, dapibus ac facilisis in, egestas eget quam. Donec id elit non mi porta gravida at eget metus. Nullam id dolor id nibh ultricies vehicula ut id elit." style="html=1;shadow=0;dashed=0;shape=mxgraph.bootstrap.anchor;strokeColor=#dddddd;whiteSpace=wrap;align=left;verticalAlign=top;fontSize=14;whiteSpace=wrap;hachureGap=4;fontFamily=Architects Daughter;fontSource=https%3A%2F%2Ffonts.googleapis.com%2Fcss%3Ffamily%3DArchitects%2BDaughter;textShadow=0;" parent="d6mL9r7aTs5oHf-mW6mQ-11" vertex="1">
          <mxGeometry x="15" y="260" width="300" height="80" as="geometry" />
        </mxCell>
        <mxCell id="d6mL9r7aTs5oHf-mW6mQ-15" value="Button" style="html=1;shadow=0;dashed=0;shape=mxgraph.bootstrap.rrect;rSize=5;fontSize=16;fillColor=#3D8BCD;strokeColor=none;fontColor=#ffffff;whiteSpace=wrap;hachureGap=4;fontFamily=Architects Daughter;fontSource=https%3A%2F%2Ffonts.googleapis.com%2Fcss%3Ffamily%3DArchitects%2BDaughter;textShadow=0;" parent="d6mL9r7aTs5oHf-mW6mQ-11" vertex="1">
          <mxGeometry y="1" width="80" height="40" relative="1" as="geometry">
            <mxPoint x="15" y="-60" as="offset" />
          </mxGeometry>
        </mxCell>
        <mxCell id="d6mL9r7aTs5oHf-mW6mQ-16" value="Button" style="html=1;shadow=0;dashed=0;shape=mxgraph.bootstrap.rrect;rSize=5;fontSize=16;strokeColor=#dddddd;whiteSpace=wrap;hachureGap=4;fontFamily=Architects Daughter;fontSource=https%3A%2F%2Ffonts.googleapis.com%2Fcss%3Ffamily%3DArchitects%2BDaughter;textShadow=0;" parent="d6mL9r7aTs5oHf-mW6mQ-11" vertex="1">
          <mxGeometry y="1" width="80" height="40" relative="1" as="geometry">
            <mxPoint x="100" y="-60" as="offset" />
          </mxGeometry>
        </mxCell>
        <mxCell id="d6mL9r7aTs5oHf-mW6mQ-17" value="Template name" style="html=1;shadow=0;dashed=0;shape=mxgraph.bootstrap.rect;strokeColor=none;fillColor=none;fontColor=#999999;align=left;spacingLeft=5;whiteSpace=wrap;rounded=0;hachureGap=4;fontFamily=Architects Daughter;fontSource=https%3A%2F%2Ffonts.googleapis.com%2Fcss%3Ffamily%3DArchitects%2BDaughter;textShadow=0;" parent="1" vertex="1">
          <mxGeometry x="20" y="80" width="200" height="20" as="geometry" />
        </mxCell>
        <mxCell id="d6mL9r7aTs5oHf-mW6mQ-18" value="Uncompleted Profile" style="html=1;shadow=0;dashed=0;shape=mxgraph.bootstrap.rrect;rSize=5;strokeColor=#dddddd;;align=left;spacingLeft=10;fontSize=16;whiteSpace=wrap;rounded=0;hachureGap=4;fontFamily=Architects Daughter;fontSource=https%3A%2F%2Ffonts.googleapis.com%2Fcss%3Ffamily%3DArchitects%2BDaughter;textShadow=0;" parent="1" vertex="1">
          <mxGeometry x="20" y="100" width="800" height="40" as="geometry" />
        </mxCell>
        <mxCell id="d6mL9r7aTs5oHf-mW6mQ-19" value="Subject" style="html=1;shadow=0;dashed=0;shape=mxgraph.bootstrap.rect;strokeColor=none;fillColor=none;fontColor=#999999;align=left;spacingLeft=5;whiteSpace=wrap;rounded=0;hachureGap=4;fontFamily=Architects Daughter;fontSource=https%3A%2F%2Ffonts.googleapis.com%2Fcss%3Ffamily%3DArchitects%2BDaughter;textShadow=0;" parent="1" vertex="1">
          <mxGeometry x="20" y="160" width="200" height="20" as="geometry" />
        </mxCell>
        <mxCell id="d6mL9r7aTs5oHf-mW6mQ-20" value="Hello, %USER_FULL_NAME%" style="html=1;shadow=0;dashed=0;shape=mxgraph.bootstrap.rrect;rSize=5;strokeColor=#dddddd;align=left;spacingLeft=10;fontSize=16;whiteSpace=wrap;rounded=0;hachureGap=4;fontFamily=Architects Daughter;fontSource=https%3A%2F%2Ffonts.googleapis.com%2Fcss%3Ffamily%3DArchitects%2BDaughter;textShadow=0;" parent="1" vertex="1">
          <mxGeometry x="20" y="180" width="800" height="40" as="geometry" />
        </mxCell>
        <mxCell id="d6mL9r7aTs5oHf-mW6mQ-21" value="Insert System Variable" style="html=1;shadow=0;dashed=0;shape=mxgraph.bootstrap.rect;strokeColor=none;fillColor=none;align=right;fontSize=10;whiteSpace=wrap;rounded=0;hachureGap=4;fontFamily=Architects Daughter;fontSource=https%3A%2F%2Ffonts.googleapis.com%2Fcss%3Ffamily%3DArchitects%2BDaughter;textShadow=0;" parent="1" vertex="1">
          <mxGeometry x="670" y="160" width="120" height="20" as="geometry" />
        </mxCell>
        <mxCell id="d6mL9r7aTs5oHf-mW6mQ-22" value="" style="shape=triangle;strokeColor=none;fillColor=#000000;direction=south;rounded=0;shadow=0;fontSize=12;fontColor=#000000;align=center;html=1;hachureGap=4;fontFamily=Architects Daughter;fontSource=https%3A%2F%2Ffonts.googleapis.com%2Fcss%3Ffamily%3DArchitects%2BDaughter;textShadow=0;" parent="1" vertex="1">
          <mxGeometry x="792" y="167" width="8" height="4" as="geometry" />
        </mxCell>
        <mxCell id="d6mL9r7aTs5oHf-mW6mQ-23" value="Message" style="html=1;shadow=0;dashed=0;shape=mxgraph.bootstrap.rect;strokeColor=none;fillColor=none;fontColor=#999999;align=left;spacingLeft=5;whiteSpace=wrap;rounded=0;hachureGap=4;fontFamily=Architects Daughter;fontSource=https%3A%2F%2Ffonts.googleapis.com%2Fcss%3Ffamily%3DArchitects%2BDaughter;textShadow=0;" parent="1" vertex="1">
          <mxGeometry x="20" y="240" width="200" height="20" as="geometry" />
        </mxCell>
        <mxCell id="d6mL9r7aTs5oHf-mW6mQ-24" value="Hello %USER_FULL_NAME%!&#xa;&#xa;At vero eos et accusamus et iusto odio dignissimos ducimus, qui blanditiis praesentium voluptatum deleniti atque corrupti, quosdolores et quas molestias excepturi sint, obcaecati cupiditate non provident, similique sunt in culpa, qui officia deserunt mollitiaanimi, id est laborum et dolorum fuga. Et harum quidem rerum facilis est et expedita distinctio. Nam libero tempore, cum solutanobis est eligendi optio, cumque nihil impedit, quo minus id, quod maxime placeat, facere possimus, omnis voluptas assumendaest, omnis dolor repellendus." style="html=1;shadow=0;dashed=0;shape=mxgraph.bootstrap.rrect;rSize=5;fontSize=12;strokeColor=#dddddd;align=left;spacing=10;verticalAlign=top;whiteSpace=wrap;rounded=0;hachureGap=4;fontFamily=Architects Daughter;fontSource=https%3A%2F%2Ffonts.googleapis.com%2Fcss%3Ffamily%3DArchitects%2BDaughter;textShadow=0;" parent="1" vertex="1">
          <mxGeometry x="20" y="260" width="800" height="240" as="geometry" />
        </mxCell>
        <mxCell id="d6mL9r7aTs5oHf-mW6mQ-25" value="Insert System Variable" style="html=1;shadow=0;dashed=0;shape=mxgraph.bootstrap.rect;strokeColor=none;fillColor=none;align=right;fontSize=10;whiteSpace=wrap;rounded=0;hachureGap=4;fontFamily=Architects Daughter;fontSource=https%3A%2F%2Ffonts.googleapis.com%2Fcss%3Ffamily%3DArchitects%2BDaughter;textShadow=0;" parent="1" vertex="1">
          <mxGeometry x="670" y="240" width="120" height="20" as="geometry" />
        </mxCell>
        <mxCell id="d6mL9r7aTs5oHf-mW6mQ-26" value="" style="shape=triangle;strokeColor=none;fillColor=#000000;direction=south;rounded=0;shadow=0;fontSize=12;fontColor=#000000;align=center;html=1;hachureGap=4;fontFamily=Architects Daughter;fontSource=https%3A%2F%2Ffonts.googleapis.com%2Fcss%3Ffamily%3DArchitects%2BDaughter;textShadow=0;" parent="1" vertex="1">
          <mxGeometry x="792" y="247" width="8" height="4" as="geometry" />
        </mxCell>
        <mxCell id="d6mL9r7aTs5oHf-mW6mQ-27" value="%USER_FULL_NAME%&#xa;%USER_EMAIL%&#xa;%USER_PROFILE_COMPLETENESS%&#xa;%USER_NUM_SUCCESS_TRADES%&#xa;%USER_FULL_NAME%&#xa;%USER_EMAIL%&#xa;%USER_PROFILE_COMPLETENESS%&#xa;%USER_NUM_SUCCESS_SELLS%" style="html=1;shadow=0;dashed=0;shape=mxgraph.bootstrap.rrect;fontSize=12;rSize=2;strokeColor=#dddddd;align=left;verticalAlign=top;spacing=10;shadow=1;whiteSpace=wrap;rounded=0;hachureGap=4;fontFamily=Architects Daughter;fontSource=https%3A%2F%2Ffonts.googleapis.com%2Fcss%3Ffamily%3DArchitects%2BDaughter;textShadow=0;" parent="1" vertex="1">
          <mxGeometry x="570" y="255" width="240" height="140" as="geometry" />
        </mxCell>
        <mxCell id="d6mL9r7aTs5oHf-mW6mQ-28" value="Message Type" style="html=1;shadow=0;dashed=0;shape=mxgraph.bootstrap.rect;strokeColor=none;fillColor=none;fontColor=#999999;align=left;spacingLeft=5;whiteSpace=wrap;rounded=0;hachureGap=4;fontFamily=Architects Daughter;fontSource=https%3A%2F%2Ffonts.googleapis.com%2Fcss%3Ffamily%3DArchitects%2BDaughter;textShadow=0;" parent="1" vertex="1">
          <mxGeometry x="20" y="520" width="200" height="20" as="geometry" />
        </mxCell>
        <mxCell id="d6mL9r7aTs5oHf-mW6mQ-29" value="Email + Push" style="html=1;shadow=0;dashed=0;shape=mxgraph.bootstrap.rrect;rSize=5;strokeColor=#dddddd;align=left;spacingLeft=10;fontSize=16;whiteSpace=wrap;rounded=0;hachureGap=4;fontFamily=Architects Daughter;fontSource=https%3A%2F%2Ffonts.googleapis.com%2Fcss%3Ffamily%3DArchitects%2BDaughter;textShadow=0;" parent="1" vertex="1">
          <mxGeometry x="20" y="540" width="390" height="40" as="geometry" />
        </mxCell>
        <mxCell id="d6mL9r7aTs5oHf-mW6mQ-30" value="" style="shape=triangle;strokeColor=none;fillColor=#000000;direction=south;rounded=0;shadow=0;fontSize=12;fontColor=#000000;align=center;html=1;hachureGap=4;fontFamily=Architects Daughter;fontSource=https%3A%2F%2Ffonts.googleapis.com%2Fcss%3Ffamily%3DArchitects%2BDaughter;textShadow=0;" parent="1" vertex="1">
          <mxGeometry x="390" y="557" width="10" height="5" as="geometry" />
        </mxCell>
        <mxCell id="d6mL9r7aTs5oHf-mW6mQ-31" value="Tap target" style="html=1;shadow=0;dashed=0;shape=mxgraph.bootstrap.rect;strokeColor=none;fillColor=none;fontColor=#999999;align=left;spacingLeft=5;whiteSpace=wrap;rounded=0;hachureGap=4;fontFamily=Architects Daughter;fontSource=https%3A%2F%2Ffonts.googleapis.com%2Fcss%3Ffamily%3DArchitects%2BDaughter;textShadow=0;" parent="1" vertex="1">
          <mxGeometry x="430" y="520" width="200" height="20" as="geometry" />
        </mxCell>
        <mxCell id="d6mL9r7aTs5oHf-mW6mQ-32" value="Profile Screen" style="html=1;shadow=0;dashed=0;shape=mxgraph.bootstrap.rrect;rSize=5;strokeColor=#dddddd;align=left;spacingLeft=10;fontSize=16;whiteSpace=wrap;rounded=0;hachureGap=4;fontFamily=Architects Daughter;fontSource=https%3A%2F%2Ffonts.googleapis.com%2Fcss%3Ffamily%3DArchitects%2BDaughter;textShadow=0;" parent="1" vertex="1">
          <mxGeometry x="430" y="540" width="390" height="40" as="geometry" />
        </mxCell>
        <mxCell id="d6mL9r7aTs5oHf-mW6mQ-33" value="" style="shape=triangle;strokeColor=none;fillColor=#000000;direction=south;rounded=0;shadow=0;fontSize=12;fontColor=#000000;align=center;html=1;hachureGap=4;fontFamily=Architects Daughter;fontSource=https%3A%2F%2Ffonts.googleapis.com%2Fcss%3Ffamily%3DArchitects%2BDaughter;textShadow=0;" parent="1" vertex="1">
          <mxGeometry x="800" y="557" width="10" height="5" as="geometry" />
        </mxCell>
        <mxCell id="d6mL9r7aTs5oHf-mW6mQ-34" value="Send to Group" style="html=1;shadow=0;dashed=0;shape=mxgraph.bootstrap.rect;strokeColor=none;fillColor=none;fontColor=#999999;align=left;spacingLeft=5;whiteSpace=wrap;rounded=0;hachureGap=4;fontFamily=Architects Daughter;fontSource=https%3A%2F%2Ffonts.googleapis.com%2Fcss%3Ffamily%3DArchitects%2BDaughter;textShadow=0;" parent="1" vertex="1">
          <mxGeometry x="20" y="600" width="200" height="20" as="geometry" />
        </mxCell>
        <mxCell id="d6mL9r7aTs5oHf-mW6mQ-35" value="Top Management" style="html=1;shadow=0;dashed=0;shape=mxgraph.bootstrap.checkbox;fontSize=12;strokeColor=#999999;align=left;labelPosition=right;spacingLeft=5;rounded=0;hachureGap=4;fontFamily=Architects Daughter;fontSource=https%3A%2F%2Ffonts.googleapis.com%2Fcss%3Ffamily%3DArchitects%2BDaughter;textShadow=0;" parent="1" vertex="1">
          <mxGeometry x="30" y="623" width="14" height="14" as="geometry" />
        </mxCell>
        <mxCell id="d6mL9r7aTs5oHf-mW6mQ-36" value="Marketing Department" style="html=1;shadow=0;dashed=0;shape=mxgraph.bootstrap.rrect;fontSize=12;rSize=3;strokeColor=#999999;align=left;labelPosition=right;spacingLeft=5;rounded=0;hachureGap=4;fontFamily=Architects Daughter;fontSource=https%3A%2F%2Ffonts.googleapis.com%2Fcss%3Ffamily%3DArchitects%2BDaughter;textShadow=0;" parent="1" vertex="1">
          <mxGeometry x="30" y="643" width="14" height="14" as="geometry" />
        </mxCell>
        <mxCell id="d6mL9r7aTs5oHf-mW6mQ-37" value="Design Department" style="html=1;shadow=0;dashed=0;shape=mxgraph.bootstrap.checkbox;fontSize=12;strokeColor=#999999;align=left;labelPosition=right;spacingLeft=5;rounded=0;hachureGap=4;fontFamily=Architects Daughter;fontSource=https%3A%2F%2Ffonts.googleapis.com%2Fcss%3Ffamily%3DArchitects%2BDaughter;textShadow=0;" parent="1" vertex="1">
          <mxGeometry x="30" y="663" width="14" height="14" as="geometry" />
        </mxCell>
        <mxCell id="d6mL9r7aTs5oHf-mW6mQ-38" value="Financial Department" style="html=1;shadow=0;dashed=0;shape=mxgraph.bootstrap.rrect;fontSize=12;rSize=3;strokeColor=#999999;align=left;labelPosition=right;spacingLeft=5;rounded=0;hachureGap=4;fontFamily=Architects Daughter;fontSource=https%3A%2F%2Ffonts.googleapis.com%2Fcss%3Ffamily%3DArchitects%2BDaughter;textShadow=0;" parent="1" vertex="1">
          <mxGeometry x="30" y="683" width="14" height="14" as="geometry" />
        </mxCell>
        <mxCell id="d6mL9r7aTs5oHf-mW6mQ-39" value="Supply Department" style="html=1;shadow=0;dashed=0;shape=mxgraph.bootstrap.rrect;fontSize=12;rSize=3;strokeColor=#999999;align=left;labelPosition=right;spacingLeft=5;rounded=0;hachureGap=4;fontFamily=Architects Daughter;fontSource=https%3A%2F%2Ffonts.googleapis.com%2Fcss%3Ffamily%3DArchitects%2BDaughter;textShadow=0;" parent="1" vertex="1">
          <mxGeometry x="30" y="703" width="14" height="14" as="geometry" />
        </mxCell>
        <mxCell id="d6mL9r7aTs5oHf-mW6mQ-40" value="Set Type" style="html=1;shadow=0;dashed=0;shape=mxgraph.bootstrap.rect;strokeColor=none;fillColor=none;fontColor=#999999;align=left;spacingLeft=5;whiteSpace=wrap;rounded=0;hachureGap=4;fontFamily=Architects Daughter;fontSource=https%3A%2F%2Ffonts.googleapis.com%2Fcss%3Ffamily%3DArchitects%2BDaughter;textShadow=0;" parent="1" vertex="1">
          <mxGeometry x="430" y="600" width="200" height="20" as="geometry" />
        </mxCell>
        <mxCell id="d6mL9r7aTs5oHf-mW6mQ-41" value="" style="shape=ellipse;dashed=0;strokeColor=#999999;fillColor=#ffffff;html=1;rounded=0;shadow=0;fontSize=12;fontColor=#000000;align=center;hachureGap=4;fontFamily=Architects Daughter;fontSource=https%3A%2F%2Ffonts.googleapis.com%2Fcss%3Ffamily%3DArchitects%2BDaughter;textShadow=0;" parent="1" vertex="1">
          <mxGeometry x="440" y="623" width="14" height="14" as="geometry" />
        </mxCell>
        <mxCell id="d6mL9r7aTs5oHf-mW6mQ-42" value="News" style="html=1;shadow=0;dashed=0;shape=mxgraph.bootstrap.rrect;align=center;rSize=3;strokeColor=none;fillColor=#58B957;fontColor=#ffffff;fontStyle=1;fontSize=10;whiteSpace=wrap;rounded=0;hachureGap=4;fontFamily=Architects Daughter;fontSource=https%3A%2F%2Ffonts.googleapis.com%2Fcss%3Ffamily%3DArchitects%2BDaughter;textShadow=0;" parent="1" vertex="1">
          <mxGeometry x="460" y="623" width="40" height="14" as="geometry" />
        </mxCell>
        <mxCell id="d6mL9r7aTs5oHf-mW6mQ-43" value="" style="html=1;shadow=0;dashed=0;shape=mxgraph.bootstrap.radioButton;strokeColor=#999999;fillColor=#ffffff;rounded=0;fontSize=12;fontColor=#000000;align=center;hachureGap=4;fontFamily=Architects Daughter;fontSource=https%3A%2F%2Ffonts.googleapis.com%2Fcss%3Ffamily%3DArchitects%2BDaughter;textShadow=0;" parent="1" vertex="1">
          <mxGeometry x="440" y="643" width="14" height="14" as="geometry" />
        </mxCell>
        <mxCell id="d6mL9r7aTs5oHf-mW6mQ-44" value="Reports" style="html=1;shadow=0;dashed=0;shape=mxgraph.bootstrap.rrect;align=center;rSize=3;strokeColor=none;fillColor=#55BFE0;fontColor=#ffffff;fontStyle=1;fontSize=10;whiteSpace=wrap;rounded=0;hachureGap=4;fontFamily=Architects Daughter;fontSource=https%3A%2F%2Ffonts.googleapis.com%2Fcss%3Ffamily%3DArchitects%2BDaughter;textShadow=0;" parent="1" vertex="1">
          <mxGeometry x="460" y="643" width="50" height="14" as="geometry" />
        </mxCell>
        <mxCell id="d6mL9r7aTs5oHf-mW6mQ-45" value="" style="shape=ellipse;dashed=0;strokeColor=#999999;fillColor=#ffffff;html=1;rounded=0;shadow=0;fontSize=12;fontColor=#000000;align=center;hachureGap=4;fontFamily=Architects Daughter;fontSource=https%3A%2F%2Ffonts.googleapis.com%2Fcss%3Ffamily%3DArchitects%2BDaughter;textShadow=0;" parent="1" vertex="1">
          <mxGeometry x="440" y="663" width="14" height="14" as="geometry" />
        </mxCell>
        <mxCell id="d6mL9r7aTs5oHf-mW6mQ-46" value="Documents" style="html=1;shadow=0;dashed=0;shape=mxgraph.bootstrap.rrect;align=center;rSize=3;strokeColor=none;fillColor=#EFAC43;fontColor=#ffffff;fontStyle=1;fontSize=10;whiteSpace=wrap;rounded=0;hachureGap=4;fontFamily=Architects Daughter;fontSource=https%3A%2F%2Ffonts.googleapis.com%2Fcss%3Ffamily%3DArchitects%2BDaughter;textShadow=0;" parent="1" vertex="1">
          <mxGeometry x="460" y="663" width="70" height="14" as="geometry" />
        </mxCell>
        <mxCell id="d6mL9r7aTs5oHf-mW6mQ-47" value="" style="shape=ellipse;dashed=0;strokeColor=#999999;fillColor=#ffffff;html=1;rounded=0;shadow=0;fontSize=12;fontColor=#000000;align=center;hachureGap=4;fontFamily=Architects Daughter;fontSource=https%3A%2F%2Ffonts.googleapis.com%2Fcss%3Ffamily%3DArchitects%2BDaughter;textShadow=0;" parent="1" vertex="1">
          <mxGeometry x="440" y="683" width="14" height="14" as="geometry" />
        </mxCell>
        <mxCell id="d6mL9r7aTs5oHf-mW6mQ-48" value="Media" style="html=1;shadow=0;dashed=0;shape=mxgraph.bootstrap.rrect;align=center;rSize=3;strokeColor=none;fillColor=#3D8BCD;fontColor=#ffffff;fontStyle=1;fontSize=10;whiteSpace=wrap;rounded=0;hachureGap=4;fontFamily=Architects Daughter;fontSource=https%3A%2F%2Ffonts.googleapis.com%2Fcss%3Ffamily%3DArchitects%2BDaughter;textShadow=0;" parent="1" vertex="1">
          <mxGeometry x="460" y="683" width="40" height="14" as="geometry" />
        </mxCell>
        <mxCell id="d6mL9r7aTs5oHf-mW6mQ-49" value="" style="shape=ellipse;dashed=0;strokeColor=#999999;fillColor=#ffffff;html=1;rounded=0;shadow=0;fontSize=12;fontColor=#000000;align=center;hachureGap=4;fontFamily=Architects Daughter;fontSource=https%3A%2F%2Ffonts.googleapis.com%2Fcss%3Ffamily%3DArchitects%2BDaughter;textShadow=0;" parent="1" vertex="1">
          <mxGeometry x="440" y="703" width="14" height="14" as="geometry" />
        </mxCell>
        <mxCell id="d6mL9r7aTs5oHf-mW6mQ-50" value="Text" style="html=1;shadow=0;dashed=0;shape=mxgraph.bootstrap.rrect;align=center;rSize=3;strokeColor=none;fillColor=#999999;fontColor=#ffffff;fontStyle=1;fontSize=10;whiteSpace=wrap;rounded=0;hachureGap=4;fontFamily=Architects Daughter;fontSource=https%3A%2F%2Ffonts.googleapis.com%2Fcss%3Ffamily%3DArchitects%2BDaughter;textShadow=0;" parent="1" vertex="1">
          <mxGeometry x="460" y="703" width="30" height="14" as="geometry" />
        </mxCell>
        <mxCell id="d6mL9r7aTs5oHf-mW6mQ-51" value="Save Template" style="html=1;shadow=0;dashed=0;shape=mxgraph.bootstrap.rrect;align=center;rSize=5;strokeColor=none;fillColor=#3D8BCD;fontColor=#ffffff;fontSize=16;whiteSpace=wrap;rounded=0;hachureGap=4;fontFamily=Architects Daughter;fontSource=https%3A%2F%2Ffonts.googleapis.com%2Fcss%3Ffamily%3DArchitects%2BDaughter;textShadow=0;" parent="1" vertex="1">
          <mxGeometry x="20" y="760" width="150" height="40" as="geometry" />
        </mxCell>
        <mxCell id="d6mL9r7aTs5oHf-mW6mQ-52" value="Cancel" style="html=1;shadow=0;dashed=0;shape=mxgraph.bootstrap.rrect;align=center;rSize=5;strokeColor=#dddddd;fontSize=16;whiteSpace=wrap;rounded=0;hachureGap=4;fontFamily=Architects Daughter;fontSource=https%3A%2F%2Ffonts.googleapis.com%2Fcss%3Ffamily%3DArchitects%2BDaughter;textShadow=0;" parent="1" vertex="1">
          <mxGeometry x="190" y="760" width="100" height="40" as="geometry" />
        </mxCell>
        <mxCell id="d6mL9r7aTs5oHf-mW6mQ-53" value="Delete Template" style="html=1;shadow=0;dashed=0;shape=mxgraph.bootstrap.rrect;align=center;rSize=5;strokeColor=none;fillColor=#DB524C;fontColor=#ffffff;fontSize=16;whiteSpace=wrap;rounded=0;hachureGap=4;fontFamily=Architects Daughter;fontSource=https%3A%2F%2Ffonts.googleapis.com%2Fcss%3Ffamily%3DArchitects%2BDaughter;textShadow=0;" parent="1" vertex="1">
          <mxGeometry x="650" y="760" width="170" height="40" as="geometry" />
        </mxCell>
        <mxCell id="d6mL9r7aTs5oHf-mW6mQ-54" value="" style="html=1;shadow=0;dashed=0;shape=mxgraph.bootstrap.rrect;rSize=5;strokeColor=#dddddd;rounded=0;fontSize=12;align=center;hachureGap=4;fontFamily=Architects Daughter;fontSource=https%3A%2F%2Ffonts.googleapis.com%2Fcss%3Ffamily%3DArchitects%2BDaughter;textShadow=0;" parent="1" vertex="1">
          <mxGeometry x="840" y="530" width="330" height="400" as="geometry" />
        </mxCell>
        <mxCell id="d6mL9r7aTs5oHf-mW6mQ-55" value="320x200" style="shape=rect;fontSize=24;fillColor=#f0f0f0;strokeColor=none;fontColor=#999999;whiteSpace=wrap;hachureGap=4;fontFamily=Architects Daughter;fontSource=https%3A%2F%2Ffonts.googleapis.com%2Fcss%3Ffamily%3DArchitects%2BDaughter;shadow=0;textShadow=0;" parent="d6mL9r7aTs5oHf-mW6mQ-54" vertex="1">
          <mxGeometry x="5" y="5" width="320" height="200" as="geometry" />
        </mxCell>
        <mxCell id="d6mL9r7aTs5oHf-mW6mQ-56" value="Thumbnail label" style="html=1;shadow=0;dashed=0;shape=mxgraph.bootstrap.anchor;fontSize=26;align=left;whiteSpace=wrap;hachureGap=4;fontFamily=Architects Daughter;fontSource=https%3A%2F%2Ffonts.googleapis.com%2Fcss%3Ffamily%3DArchitects%2BDaughter;textShadow=0;" parent="d6mL9r7aTs5oHf-mW6mQ-54" vertex="1">
          <mxGeometry x="15" y="220" width="300" height="40" as="geometry" />
        </mxCell>
        <mxCell id="d6mL9r7aTs5oHf-mW6mQ-57" value="Cras justo odio, dapibus ac facilisis in, egestas eget quam. Donec id elit non mi porta gravida at eget metus. Nullam id dolor id nibh ultricies vehicula ut id elit." style="html=1;shadow=0;dashed=0;shape=mxgraph.bootstrap.anchor;strokeColor=#dddddd;whiteSpace=wrap;align=left;verticalAlign=top;fontSize=14;whiteSpace=wrap;hachureGap=4;fontFamily=Architects Daughter;fontSource=https%3A%2F%2Ffonts.googleapis.com%2Fcss%3Ffamily%3DArchitects%2BDaughter;textShadow=0;" parent="d6mL9r7aTs5oHf-mW6mQ-54" vertex="1">
          <mxGeometry x="15" y="260" width="300" height="80" as="geometry" />
        </mxCell>
        <mxCell id="d6mL9r7aTs5oHf-mW6mQ-58" value="Button" style="html=1;shadow=0;dashed=0;shape=mxgraph.bootstrap.rrect;rSize=5;fontSize=16;fillColor=#3D8BCD;strokeColor=none;fontColor=#ffffff;whiteSpace=wrap;hachureGap=4;fontFamily=Architects Daughter;fontSource=https%3A%2F%2Ffonts.googleapis.com%2Fcss%3Ffamily%3DArchitects%2BDaughter;textShadow=0;" parent="d6mL9r7aTs5oHf-mW6mQ-54" vertex="1">
          <mxGeometry y="1" width="80" height="40" relative="1" as="geometry">
            <mxPoint x="15" y="-60" as="offset" />
          </mxGeometry>
        </mxCell>
        <mxCell id="d6mL9r7aTs5oHf-mW6mQ-59" value="Button" style="html=1;shadow=0;dashed=0;shape=mxgraph.bootstrap.rrect;rSize=5;fontSize=16;strokeColor=#dddddd;whiteSpace=wrap;hachureGap=4;fontFamily=Architects Daughter;fontSource=https%3A%2F%2Ffonts.googleapis.com%2Fcss%3Ffamily%3DArchitects%2BDaughter;textShadow=0;" parent="d6mL9r7aTs5oHf-mW6mQ-54" vertex="1">
          <mxGeometry y="1" width="80" height="40" relative="1" as="geometry">
            <mxPoint x="100" y="-60" as="offset" />
          </mxGeometry>
        </mxCell>
      </root>
    </mxGraphModel>
  </diagram>
</mxfile>
